<mxfile host="app.diagrams.net" modified="2024-06-25T07:56:48.324Z" agent="Mozilla/5.0 (Windows NT 10.0; Win64; x64) AppleWebKit/537.36 (KHTML, like Gecko) Chrome/125.0.0.0 Safari/537.36" etag="lgWGoxqbdNYsEnGhrJIE" version="24.2.1" type="device">
  <diagram name="Trang-1" id="Z_ykKuHsHKBfLIP-eg7_">
    <mxGraphModel dx="2514" dy="2077" grid="1" gridSize="10" guides="1" tooltips="1" connect="1" arrows="1" fold="1" page="1" pageScale="1" pageWidth="827" pageHeight="1169" math="0" shadow="0">
      <root>
        <mxCell id="0" />
        <mxCell id="1" parent="0" />
        <mxCell id="-Z6yPIl1t9Wa27zDCka9-32" value="" style="rounded=0;whiteSpace=wrap;html=1;" parent="1" vertex="1">
          <mxGeometry x="471.25" y="220" width="137.5" height="98.5" as="geometry" />
        </mxCell>
        <mxCell id="-Z6yPIl1t9Wa27zDCka9-31" value="" style="rounded=0;whiteSpace=wrap;html=1;" parent="1" vertex="1">
          <mxGeometry x="260" y="220" width="137.5" height="98.5" as="geometry" />
        </mxCell>
        <mxCell id="-Z6yPIl1t9Wa27zDCka9-1" value="" style="shape=image;verticalLabelPosition=bottom;labelBackgroundColor=default;verticalAlign=top;aspect=fixed;imageAspect=0;image=data:image/jpeg,/9j/4AAQSkZJRgABAQAAAQABAAD/2wCEAAkGBwgHBgkIBwgKCgkLDRYPDQwMDRsUFRAWIB0iIiAdHx8kKDQsJCYxJx8fLT0tMTU3Ojo6Iys/RD84QzQ5OjcBCgoKDQwNGg8PGjclHyU3Nzc3Nzc3Nzc3Nzc3Nzc3Nzc3Nzc3Nzc3Nzc3Nzc3Nzc3Nzc3Nzc3Nzc3Nzc3Nzc3N//AABEIAMAAzAMBIgACEQEDEQH/xAAcAAACAgMBAQAAAAAAAAAAAAAABwYIAQQFAgP/xABMEAABAwMBBAUGCgcFBwUAAAABAgMEAAURBgcSITETQVFhkRQicYGh0QgVFzJCUlSTsbIjNVVidILBM0NykqIWNGNz4fDxJFNkg5T/xAAUAQEAAAAAAAAAAAAAAAAAAAAA/8QAFBEBAAAAAAAAAAAAAAAAAAAAAP/aAAwDAQACEQMRAD8AeNFFFAUUUUBRRRQFFFad0ucK0xVyrlKajMJ4lbqsCg3K8k4yTyHOk/qjbbHYK2dNQ+nUDjyqVlLY7wnmfZUODu0bXa99C7g5GWeAQTHjj1DG8PGgftw1LY7bkTbtDaUPol0Z8BxqNy9rWj42R8YreIOP0LKlUhtU6cc02+iJMnxnpxGXWWSVdF2bx5V29D7NbvqhCZrh8ity/mvujKnB2pH9aBpK2z6THzVTVD+GVXtvbJpFagFPTEZ61RVYpS7UtJQ9GzYEaBIffL0ZTji3scSCAMAAY9tS6ZsXblWeNMsdxdTIcZStTErBSokZICgOFAxbftE0ncMBi9xkqJxhw7h9tSONLjy0BcWQy8k/SbWFD2VUO62uXaLmuBdGFxn0EbyVjJx1Edo51LY+hdUxYbV20xM8sjLAUh63SShfhkH20FlqKrzadq+rNPSBEv7HlgR89uU30bwHcoDj6wfTTV0ptH0/qXdaZk+SzDw8mkkJVnu6j6qCY0UUUBRRRQFFFFAUUUUBRRRQFFFFAVg9tYXyzSY2obUFhxyyaYewQdyRMbOePLcb7e8+oUEk1/tRgabUuDbEonXQDinJ6Nk/vEcz+6OPopX2yxav2mTTOlvuGMT/ALy+ClpA7EJHP1eNSbZxsnXJ6O76rbIbUd9qAriV563c9v1fGnUwy2wyhpltLbaBhKEjAAoIVpXZbp7T/RvPM/GM5OD08kZCT+6jkPae+vttL1gjR9gJi7nxlJy3EaI4A9ayOxI8TgVMHXEtNqccO6hIJUo9Qqt14kStpe0ZuPFUfJ1udE0rmG2EfOX6+J9YoOlsu0IrVU5d81AHHbelwrw4cmW515/d/HlyzmwCEJbSlKEhKUjASBgAVr2y3x7Xb48CG2ER2EBCEjqArbNAhPhF/ry2fwTn5hTrsH6it/8ADN/lFJT4Rf68tn8E5+YU69P/AKit/wDDN/lFBxdfaLg6wtRZdSGpzeVRpIHFCscj2pPDI/qKTuz3U83Qep3bLewpuC690clCuIYXyDie7lnu49VWLOaUe3XSqZEBGo4bf6WLhMsJHzmzyV6jz7j3UDJvFktV+iFi7Qo8tlQ+mnj6QeY9IpSat2LOMb0vSslbiRx8kfV54/wL/oePfUp2L6oN706bfLXmZb8N+ceK2/on+nqpijlQV60ntMvmk5gtWpGnpUVpW44h4EPsd4J+cO4+o09bJeIF8t7c61yEPx3BkKT1HsI6j3VydZ6JtWrYqkTWuilJGGpbfBaPeO40js6m2U6iCSR0bhyQMliUgc/QcY7x6KCzFFcDSGqLdqu1onW9ZBGEvMK+cyvsPv5Gu/QFFFFAUUUUBRRRQFYPVWaim0fVrWktOOSgN6Y+eiiNkc3CDxPcBxP/AFoIbtk18qEhzTlmeUmW4nEp5s8W0n6IP1iOfYKjWxmBpTyxM673OGbkheIsN47gSepQ3uCj2Y5V8dl2hzrKfKu9+LjkFKlAnewZDx5nPYPx9Fd++7DEFK12K6bpPJqWneHo3hx8c0DnQoFIIIIPWOus5FVvOndpGjyfIUXAMJ5GCvp2x/Jg/lrbt+2TU1tc6C5x4spYOCh1CmXPX/4FAyNtGoPiTRrzDTm7JuCvJ28HBCSPPI/l4ekiuBsB06I9uk6gfb/SyiWY5PU2k8T61exIpb7Qdava0mRH1xfJGYrRbSgK3vOUcqOfUnwpsaW2l6Lt9mg25uU9HTHaS0A6wRxA4nhmgZtFRiPtB0jIwG9QQQT1Lc3PxxW+1qvTrv8AZX61qPYJjefxoE58Iv8AXls/gnPzCnXp/wDUVv8A4Zv8opG/CAmRZt5tq4clmQkQ3AVMrCwDvDrFOGzX+zR7JAEi729opjoBC5KE480dpoJDXwnRWZ0R6LKbS4w82ptxCuSkkYIrjva10swkqc1Da8D6spCvwNc2VtO0cwjJvLTg/wCEhSs+ygTulH3tn21AwZTivJg/5I6pR5tLI3Fn/Sf81WSBqs21m/2TU97Zm2UvFfQ9E+XGtze4+aR6ia7ytt9yYtkdhm2MF9tpKFvvOHzlAYKgB286B+ZqNa4Y07MsjsbU8mLHir+a484EqQrqKc9fopKK1dtF1YootpnKaUeUCPuoHpc6vEVuWzY9qi6vCRepLMTe+ct5wvvH/v0mgi9hv7mjdVKlWab5ZFQvcWQlSESWuwpIByOJz1GrNWC8Q79ao1yt7ocYeTlPak9aT2EUu1bE7Q1ZJTLcuS7cVo/RSFqASlQ4jzRwxUO2WankaO1O7YryFMxZD3QvIX/cP8AlX+E8AfUe2gsPRWAc1mgKKKKAooooMHlxquOvri/rzaG1bIBKmkO+SRyOIxzWr2H1Jpy7S7+dPaOnzGlASFpDLH+NXD2ZJ9VLr4P2n0uSJ2oHgVBoGLHKuOVHBWrPo3R61UDfsNqjWS0xrbDRussICRw59p9db5GeuviZUZBwuQ0D2FYzWPLYn2lj7wUH3x41p3KBAmsKFyhxpLaRkh5pKxgekV9fLYn2lj7wVxdaXhiFpW6SW32VLRGXugLB44wKBC6RskLVu0RyIpjorep15xTTPmAIHIDsHKmdL2JadcIMaVOYx1dIFD8Ki3weorLdwu895aE9Ew2whSlgZKiSr8iad/lsT7Sx94KBRP7CWd4mNfXe4OMj+lc9zYTcd47l9iEdW9HVnxzTt8tifaWPvBR5bF+0s/eCgqzrrRz+ipkeNKksyFPsqdBaQUgYOMcal8LYjcZkNiSi7w0h5AcALKiQCM4599Hwhnmnr5bS04hYENwHcUDjzhTosEyKLHbwZLOfJm/7wfVFAqI+wmTyk35v/wCtj3munF2GWxKcSrvLdz9VCU00/LYn2ln7wUeWxPtLH3goFJrbZXZLNpKfOtnlSpUZAc3nXd4boPncPRmvlsEjWudAntyrdEemRXgpLzrKVrCSOQJ7xTWuxhXG2S4LklgpksLaI6QclJI/rSK2Dzvi/VkqK+tDflEXCt9Q+cg9vrNBYUJAGAOGMAVkDA4YFfDy2L9pY+8FHlsT7Sx94KDYpK7etLAJZ1JFQBlQYlhKeefmqP4H004vLYv2ln7wVqXm3RL9ZZlueUlxiUyptRSQcZHMd4OD6qCO7J9S/wC0WlmenXvTIYDD3HicDgr1iprVdtktxe0ztBdssw48oWuG91AOIJ3Veg4P+YVYgUGaKKKArB5Vmo9rnUreltOSbisJW8BuMNk433D80UCw+EJd0rlWqztOZDIXIeSDx3j5qM9nDf8AEVCtOt6yv0Bu12AzFQGVKwGVdE0kk5JUrhk8a62zrSUrX19lXS9OrXBbd3pDmTl9w8dwdwHPs4CrDQYUW3xm4sJhthhtIShtsYAA7qBCN7HtXujedlxULPMKkqJ9gr38jOq/t8P79fup06l1Ja9MRWpd4ecZYcX0YUhlTnnYzg7oOOVfDTGr7LqkviyyVvFjHSb7SkYzy+cBQJ35GdV/b4f36/dXlWxfVShhU2ER2F9ePwpz6m1VZ9LNMO3uUplD6ihvdaUskgZ+iDX103qO2amgrm2eQXmEOFslSCghQAPI4PIigSadi2qEZ3JkFOTk7ryhx8K9fI1qv7fD+/X7qbepdc2DS8xuHeZi2pDjfSoQhhbnm5Iyd0doNdLT99g6htiLjanFuxVqUlC1NqRkjgeB486BJfIzqv7fD+/X7qPka1X9vh/fr91NfUOv9O6cuJt93lvMydwL3UxnFjdPXkAjqrt2a7RL3bGLjbnC5GfBKFFJSeBxyPooEUrYrqdeN+VAUR1qeUf6V6GxnVYAAnQgB/x1+6mpe9o+mLFcn7dc5zjUtgAuITHcWE5AUOITjkR41KI77clhp9lW806gLQccweIoEJ8jOq/t8P79fuo+RnVf2+H9+v3UzZe1DScSc7DeuDvTtuFpSExXVecDjGQnHtqXpc3mwsBW6RkZHHwoEH8jWq/t8P79furwnYrqdJymXAB7Q6rP5aZyNqmkVy0xfjB5LynA1hcR0YVnGCd3A41MnHEtNLcWcJQCpR7AKBBfI1qv7fD+/X7qPkZ1X9vh/fr91NK0bSdL3i4s2+BOdXJeO6hKoziATz5kY6qkV1uMa026RcJzhbjR0FbigknCR3DnQIr5GdV/bof/AOhfurVk6A19p4eUwVvubnHehSSSO/GRTfse0XTV+ujNttcx96U9vFKDFcSMAEkklOAKlnIUFQbjcrmu9G4zXFfGbTiVqWtG6rfRjBUOHHgKtnaLgzdbbGnxVhTMlpLiCDnmOVRLaNs/haqhOPxkNsXdCP0T2MBw/VV2j8KXexnVUmyXtWmrqVIjvOKbQhzOWHxzT3Zx40D9orArNAUjfhE3NZm2q2BX6NttclYHWT5qfYF08qr18IZpadXRniPNctiUp7yla8/mFA49AWZFi0lbYCQN8Mhbpx85xXnKPiakWK1LU6h+2xXWz5i2UKT6CBW3QRDavazdtCXRpCCp1hvylvHPLZ3jj0gEeulLsGuHk2snIilDcmRVAceakkEewqqwzyEutrbWAUrSQQesGqt2YL0jtJjNOKCEwbkGVqUcfoyrdyT/AIVZoJLt8unlOqotvQrKYUYKUkHktZz+AHjXS+DzcgiVdbWpWA4lEhAz1jzT7CnwqPWhH+2W2Fbqgl2M5NcdUDxBZb81PsCaNNuJ0ZtbcjvHcYakusKUTgdGoZT7N3xoNXbFPNw1/OS0SrycNx0AceIHIesmrAaOtabLpe229IwWWEBWe08TVeNNR1an2lsBwbwenKeWT9UKKvwFWi6qBLfCEtX6ru6AeBVHcI8R+Bru7B7iJGjnorqxvQpCgcn5oUN4V29rNr+M9B3NKUby4yPKUDvRxPszSX2dai+JLPqhsugKehZaG9jLmSnh34NBGtS3E3jUVzuSiVCTKWtOfqZ80f5QBVgdml+RI2YRpjjnn29lbLhJzgt5A/07p9dKnQOlfjrSGqJpbCnW2A3HOM4UBvEj8K1tK6k+L9AaotQdCXZPRrZGcHK8IXj0DdNBo6DhK1Fry3oWjeD0oyXc/VGVn3VaikX8Hq1dNeLnd3E+bHZTHQoj6SzlXgEp/wA1PUAY7qCrW1K1Ks+uLm02kpQ6rylogdS+f+rep26r1IkbLHLy0vC5kFG5nqU4AMe01DfhDWrDtqu6BjIVHcPtHuqIXnUfley+w2cKHSNSXA4jIzuJ4p9qhQRaxXA2m9Qp6CQI76HFHuz53szT8223VEfQG4hX6webaTjrT88+xJ8aV+qtKi3bONMXTcHSu75kqxzDvnoye4AD118db6l+ONLaShlwrXGiLVI45IWFdGCfUlR9dBK/g82rpLldLutJ3WW0xmyfrKO8r2BHjTyqDbG7UbXoSCVpw7LKpC/5uXswKnNBhXEYPXVeNt9uNm1qxdYnmLltpkJwOTrZAz+WrDnvpF/CKebN2srf00RnVK9BUnH4GgdNomJuFqhzUHKZDCHQR+8kH+tblcXRLC42jrGw6AHG7ewhQHaECu1QBpVbfLEudY4t2jtla7esh7A5NK5n1EA01a+MuMzMjOxpLYcZdSULQrkoHmKBe7EtTt3bTiLTIcHl9tHRkE8VtfQUO3A80+jvpkVWXV1nuGzXV7LtpmLSlQL0RzmSjOChXb2HuxTP0ltest0ZQ1elC2zcAKKs9Es9oV1eg0DKPHkarrt3taYGsUzOCW7iwFnPWpPmn2bvhT5ZvtodQFt3OGpJ5Hpk++vnKmWCWUmVItr5T83pFoVjxoFN8Hq2Bcm6XUgFKUpjtqHbzP8ASuTt+tTcPVse4gJCLhGG9nkXG/N4/wApR4U8I8+yRUFMaVbmUk5KW3EJBPbwrEiZYZZT5VItz+7kp6RaFY9GaBN/B7tvlF6uV1IBRFYSyjs3lnJ8An/VT6rlRptiiAiLJt7KVHKg24hIJ78V9/jm1/tKH9+n30G2+2h5hxp0ZbWkpUO0Ecap5eoHxTeJlufUAuI+pnzjzCSQD6xjxq3Hxza/2lD+/T7603HdNvOKW8u1OLWcqWvoySe+g4eyS0Jt+z+Ah1ACpqVSXARzDnEf6d2q8aqgCz6kuVuUUgx5KkpzgcOo+GKtYi62lCAhE+ElCU4ADycAeNazz2nH3FOPLtTjivnKWWyT6TQR7Yra/i3QcR1Qw5OWqUrh9bgn/SE1O65zN1tDLaW258FCEjCUpdSAB6M17+ObX+0of36ffQRra7bBc9CXLA8+KkSU/wAvE+zNVsssH43u8K3NFO9KeS0d0gkAnBPqGTVtXLraXElC58JSFAgpLySCOsHjWq0vTbbqHGlWpDiTlK09GCD2g0HN2jWRNy0HPgMjBZZC2R2FGCPwqsVrifGlxiwWSAuS4hvAPHjgHwq3KrvalJKVXCGUngQXk8R41qNuaaacS40bShaDlKk9GCD3Gg6kGOmJEYjIGEMtpQAO4f8AStitH45tf7Sh/fp99cq8a303Z2VOTbvHyOSG176j3ADmaCQPOtstKddWlDaBvKUo4AA6zVa7tKXtI2loRFStUR15LLX7sdB85R9PnH+YVsbRNp0rUyFwLalcO15/SZ/tH8fW7B3eNMvZHolvT1rRc5YC7lNaSpXX0SCMhPp7TQMBhtLTSW0ABKAEgDuFfSsCs0BQaKDxoFXt+svlenYl2bGXLe6Uq/5bmAf9QSfGoVoTZ9a9baeXJjXB+Fc4rpaeSQHG1daTjgRkEdfUafd8trN4tEu3SUhTchpTZz3ikBsxubmi9fu2q5qKG3z5G+OoLB8xf/f16DqK2F3dJwzd4JHapC0+zjXn5Db5+1rf4L91PoVmgQnyG3z9rW/wX7q5+oNkN5stmlXN24w3kRWy4ptsK3iB2ZFWLrRvcRM+0zYihkPMKQQePMGgrRobQs3WYm+RTYscxNzfQ8FZUFZweA/dNSr5Db5+1rf4L91fDYPLVbtZy7a8T/6iMpGO1basg+BXVgc0CF+Q2+fta3+C/dR8ht8/a1v8F+6n0SBz4V4U80nm4gelQoKq650hL0ZMYjTpDD6nmS6ksAgYBxjiKlsLYreZcNiS3dICUvNhYSQvgCAezvr6fCIWhy+W3cUlQEJzJBz9IU6dPyGTY7eA63/uzf0h9UUCY+Q2+fta3+C/dR8ht8/a1v8ABfup8hxB5KB9BrOaBCK2HXsDjdrdjmfNX7qg+k9LydU3v4rgvspO6pYdXnc3UngeHHjmrM61uItelLrMCt1TcZYQf3iMJ9pFKX4PFu3rjdLipPmtNIZQcdeSfwxQfEbDb5jjdrf4L91HyG3z9rW/wX7qfQ5Cs0CE+Qy9nndrf4L91btv2Euh0G43ttLfDeTGYyo+gq4ew07qiG1HUidOaSlutLImyUmPF3eYWoY3v5Rx8KBCRbDBuu0BuwWjpVwDL6Arcc3lLbR/aKJAHPdVjAHMVahIA4AAAcgKSfwf9OkvTL++3hAT5PGJ8VH8B6qdooM0UUUBRRRQYPKkjt50utl5nUsFBCVFLMooHFCvoL7h1Z7cU7iMita5wY9ygPwZjaXY8hBbcQocCDQRLZTq9Gp9PIRIWPjGGA3IQTxI+iv0H8c1M3Hm2kFby0tpAySpWAKrLeIV62ZatWYD6mitBEd9Qyl5tXDBHWQfaAa+1u0/rXaIjytyS4/EUrHSypAS1kHjhCesej10DovG03SNq3kuXdqS4P7uGC8c+lPAes1DrntziIKha7O84epclYSPAZ/GvNl2GxUBKrxdXHu1uMjcT6MnJqa2rZtpO2BJatLTy08lyCXD7aCubWoJcbUS77bQ3FkqeU8lKBvBJVnhg8+ZqWJum1K9A9Em97qgCNyL0ScdxKR+Nd7b7ptiGi2XeBGbYZ4xHg0gJA+kg8P5x4UxNmV9F/0dBkqOX2U9A8M8QtPD2jj66BP/AOxe064DL4njq/TXFKPwX/SvadkuuHxl96P3hy4LP4A1YgjNBHDjQVM1dpK46PlMx7qY5U+0pxBjuFYwDxzlIqSxNkOrH4zMmO9AAdQFJ3Zi0qwRn6vfXT+EXwvls/g3PzCnZYBmx28//Gb/ACigQqtmm0OLjoHFq/5V0I/EivBte1a2HeQi84T9R5DvsBVmrGUHn30FXdRap1m9bV2nUbkxLD2CRKiltSsHqJA9lb2z7aOvR0R6EbW3Jbcd6Ra0ubi+wCtnazcHtU7QG7TAO+GFphM44guKI3vA48DTs/2M08u2x4L9piOtsNJbSpTQ3iEjAJI40EWtW2jTUrdRObmQVnhlbXSJHrTk+ypraNRWW9oKrTdIkvHNLToKh6RzFQy8bG9Mzd5cPyiA4RgFpzKR/KeFQa8bFr9AWH7JNYmFB83JLLqezB5Z8KB+rcSlClKOEgZJPUKrjry9ydoOs2LdZgXYyXBHiYyUrJPnOHu7+wVyZ+q9WwIUzT1wuMkJ/snUPKC1oHMgLBP4mmtsY0QbND+PLm1u3CW3hpChxZaOD4nr8KCf6etEew2eJbYo8xhsJ3scVHrJ9JrpVgDjWaAooooCiiigKKKKCPa10nB1bZ1wZg3HU+cw+B5zS+0d3aKRFjvF92W6mehzWCWFEdPH5JfT1LQe3HuNWXIB51H9Z6SturLcYk9G66nJZkpHntHu7R2ig3bBe7dqC2tXC1PpeYWP5kHsUOo91dMVWmRH1TsqvnStKV0C1boc4qYlDsUOo+0U4dFbSLNqhtLG+mFccedFeVjPaUn6Q9tB2tZWNvUem59qcwFPNno1fVWOKT4gUmNit+XYdVSLDcd5tucot4VyRIRwHjgj0hNWCFIjbdphy13dnUtuSUNSHAHlJ/unh81Xr/EUD3zWTUP2bawa1ZY23FrSmfHw3KbH1vrDuNTA0CE+EX+vLZ/BOfmFOvT/AOorf/DN/lFJT4Rf68tn8E5+YU69P/qK3/wzf5RQdCo/rrULemNNS7krBdSncjoJ+e6rgkf1PcDXeWoITvKICRxJPVVddpuo5OudUR7NZgXorL3RRwj+9cPzlegfgDQb+wuwuXLUEjUE3ecREKt1ah895fzleoE/5qfgrjaO0/H0zp+LbI4BLacurH01nio+Nb1yuMO1RHJdwktR2GxkrcVgUG16+ulZtS2mNWdDtnsDiXLgUkOyEnzYw7u1X4eyo1r3axMuy12vSyXGYziujMkA9K9k8kD6IPbzNdLZzspV0jd31W3lWd9qCvjk9rnuoNHZNs7XcZTeotQtEs7/AEsdh0ZU8rnvrz1cjjrp64rCUJSAEpCQOAA4Yr1QFFFFAUUUUBRRRQFFFFAUUUUGpcrfDuURyJcI7ciO4MKbcTkGk3q/Yy+y4uZpN8qRzEN1WFoP7i88fQePfTvooK52XaPq7R8kW+8srlNNjdEeakoWMfVc5+xVMGPtJ0bq22u2y8LVDTJRuOMy04T6ljhzwRxBqdXizW29RzHukFiU2ep1AOPXS5vmxK0SStyzT5EBav7twdK37cK9tAuZbN02balanWmW3JiqV/6d9KwpElvnuLA6/wDyKemi9b2vVkJDkZwMywkdNEWrz0Hu+sO8Um7jsb1XCBEYQ5jQyoeTPlJP8qgOPoJrgq0Xq62vh0Wa5MuN8Q6ygnd9BSaCX/CM/Xls/g3PzCnRaX2o2noLr7iW20xUFSlHAHmiqy3mNq67qZN5iXOStlBbQXWFEpBOSOVbMyLru+R22JcS8SWG0hKWi2rcAHAcAPxoJftQ2nm6odsWm1KMVR3JEpPN39xHYO09fLlxrZ2e26xaFjG+6quMZu5vIwzHCt9bKDzwkcSo+zl21C7fsz1jMKSm0OMZ5KkOJbwfHNSuzbDbi6vfvd1jsJJypEVJcWf5lADPqNBval23oQlTWm4BUeqVMO6kehA4n1keg1FIentbbRZaJU9x4ME/28rKG0f4UcM+oU4dO7NNMWEocag+VSUcn5Z6RQPaByHqFTFIASAAAByAoIZojZzZtKJS+lPltx3cKlup5f4E8kj295qZ4HZWaKAooooCiiigKKKKAooooCiiigKKKKDBIAyTivkqSyDjpU59Ne1oSsYUnI76+RiMn6GPQaAMxn6/sNefLWf3vCgwWvrL8a8+QI+uqg9eWt/VX4CseXtfVX4CvPxej658KDAH1z4UHry9v6q/AUeXt/UWPCvHxeP/AHD4VkW8D+8PhQehOa7F+ArPlrPWFeFePIE/XNZ8gR9dVB7E1jtUPVWRLYV9PxBrwIDfWpfjXoQmh9Y+ug+yHW1cErSe4GvdfFEdpBBSgZHXX2oCiiigKKKKAooooP/Z;" parent="1" vertex="1">
          <mxGeometry x="-128.12" y="78.5" width="53.13" height="50" as="geometry" />
        </mxCell>
        <mxCell id="-Z6yPIl1t9Wa27zDCka9-3" value="" style="shape=image;verticalLabelPosition=bottom;labelBackgroundColor=default;verticalAlign=top;aspect=fixed;imageAspect=0;image=data:image/png,iVBORw0KGgoAAAANSUhEUgAAAMwAAADACAMAAAB/Pny7AAAAYFBMVEX///8AAAD09PSMjIzp6eljY2M8PDyHh4ff398fHx/V1dWysrJZWVkkJCT8/Pzt7e3KyspOTk57e3u+vr6bm5t1dXWrq6sSEhKTk5MyMjIsLCyjo6NsbGxCQkK4uLg3Nzc9KacRAAAJjklEQVR4nO1b57qyvBKlSihC6EqR+7/LL2RS0S3u8h7lObN+CUrMypRMCY6DQCAQCAQCgUAgEAgEAoFAIBAIBAKBQCAQCAQCgUAgEAgEAoFA/J+DjlFVNbX37nn8AbrsFLuu21/LqHj3XH4J79S7CvPt3dP5FcjZtdC8e0K/AFncDbp3T+nHyEPJIZbKdqbvntRP0cXAJPS7S3sFNu1BvUDR8ukPKXfKdQlsDioayi0mrsVlAnJq8rdO6qfo+OQndT3y6/KYmydMvlbXAb/uD2k0+YVPPlA3CtCzI5Mh6kbhHpeMsJlRXRNw1Mckk/KdcpCX+QQO4ZgOgGR89hXMPk9By1LDNecBSZKEHEJWvtj0k6AIkkYENtqGPNrwjfTc3pI3zvJFJLMgEFZTLIKzi9Iy4hvJQfr5ypfG7gaZEgwtrS/84NlAn4C82XCZVWRGT5uvqo+3nLzbcJHWL5yDictbZ/oKcnLV09XhvxZZ1koRDbX5WLK6OXn16r95TTnP83RTI/y1Y8kTkaJFhlUQkazxNJoI64n0pAP+TAQXRctGGSGvK9cbY++enJR969c5W4pSPqXUgP2Tx93L9Y/JsHEjLhaToNhzpAVB4rPoVMci07qrKBvKIqMmZmsdlcTx844NGNVeHwRS3hf3jszpz8kU1TpuaNKDYMBXN0DVdIHAJFNcp8tKJmee0K1ah2ZcebopCFpGhhAhceK+h0wAhqT9FyyqDuNMMlEUuHk+ZlPrdbM3Byn4vS4Ow7j2hiwTAoQF4uWG/y0Z/rdXvVFSkJS6YZAplmpkMhsn5gnjqTk1NOSOoatWm/F6NQavag1V10Q9+XdkPE5mMu4AmVmTSb4mc2m7bpy9ZlyLo2l3CZOqSsjoSJuRTq/gZNZAMK+Lf0WmqH0e1ZxG7SeDgU9ek4GkVJcHNBmvYo/lFU1Tpkh0nWQd+G0bOje2LzU0D6sKKotQYlCa+i/IFH6oNpqyku7KA/eVqp+VXzqAnKwMg6Jgq80/sg8eSQLHY4YReA5h0GRiNcQ/IHOzA7CrDzZfQ9VWlQNgCzV2Tcs1vwZO5qzW5+/J+L27AdsinDyT8ecZNO8CPzPqgx9IJtpSWZc/GM3LU9NVsriuPfMHklHxVzxch0074AEqIwT7ODJ0EIvfpiQgdTvbEtqy05nOB5IRlWaWNIsbpNUW1IdpN9hcrBr0p5GBTd0MhaWhMzfQMb9ah5pKHxHr4Q8jA4O5oZmL5CLrj0BYJBWVgTm6bVKWDyMjNnk7OxKZi/rHgNa3tK6Tu2qGTYZwJMJz58kYMaRrsBysX6wfvODGN81mvZPkWzIBjCAzKtL5bIRx1YaCf7FDBgLyabPi4Janx498RaYrV8wVTIVOMxQXy8Zz/Jl9wyJOJ5l4FtEv60+XbdRMQz5EKDSiLblGxCUb8raOMO9MB0ym3tyt+SjDwye+ItOB38vEBqu9YB8GPITN1r+zfOWGjPjyWvOlNT1PSSFNfD4bUckgm9sJVP2+QyYVXGCo1pyzOw+STPKEjOAygL+0C0bL/Asy2XfJdOABQ9AxlRn3RqC0Q4ZCpHsFyd70CMYQPyMzf5OMkEsIxi8y43PZUNqUUuE4mQyUZzgtyxKbZKAZ6S4wlQCu+tKvaZepgH5nOl/YDF+N/ZqJJCO4TMKRQalgEQc96pMm4xHhzcjGmwkus1jWClZjBP+ZlK+RgUUMbW8mymXtF89syPSRSBVa4bopX4plWxXNYGKP9pkyAYHJWAn2Bp31BNlLZIQ8N/sMaLb6R1J34zim9K4yC2RKGKOS2xC3/t4Irsd+h8wJlj4k1gOtXmIRQO6Q8cBWrd4yFAOY1oD2kSaECGBpx4cRACBSQ5TmIvOfZTtkXJsLJCWDEQZCTW+PjIzNjEZZrvKb6xqKpUYW2re2CA0yRpWDy7Uyf9e+QqZVpVRI160tsnuJTCGmrsJhq1Y+Nxe73VE+iJphWRWZhGudVV9v+hfIlMQeNjNHgG18j4zKZ87ZmBCSZnbI328z6tKUjalmqu6ZrJ60t055jfELZHQ+TviwVjQF3m6XjGO3M3Zhdm5NMq48ckd/SkbVsH5Bxtm2mrgAPGocQjtn3e1Smi0Bk0wvhCmLydwTW3kBV+VnZBZrPQJewrVs5ta/SMYZbdXisSG77cvYQ2jzKLZG3fMAMq0nzAxk5vHHWtPx7TmAXgZzoMM5d6cn08NCHC+eed5YrSfLNOZGhCXgyAb5MCjk+b5ulpyEOPldTu1keAoIIZ+QmR0P/qo3YrvYOI4o9JlPqk7T50d8vVF1xvrsIm1cbDh68iCBBxXNG8gWkm/Y8tQeKod5tmmqjTqDQ288GiuVCuSi7rU+HzVpHfnPhePRkS9OeTNO0ZwM7VkBornc15o9qBvAYhbwWXbfveb8Apn8Br/itgZ626udJ10kmYLFrmnndHud1V91AQpou0DpFoz6XK193pzK6uFzMjIWgRojNPP7kOtT4ktfxDTWdy508Zy9qsGD/kxsmczT/kwgzGZV0VxY4Dy17aR67ztkZJ+Om6Q8A3sN2Qg6BGEziJwmS3Mn3OkG35MpYBgdX8KSP2ppsFkCA+7rjFafxh4ZJyj1enh35W9B5uI0PtPzvZT+QU8TLFeFWTlkSY97mo7o5nKqiTWHtnyJjAxGeCTg2QvRCjLFhdZB4426z/qMjLXv1jCUdGfgzOZtt1mSFd1Kfh6q0LEBCwZUQeOL/swirsAPCj2ejNXQgSYJx6KorLjtAZVa7HyVUR4jQuF9j0Hm775WV2+MfN9Xrnu98H1xIIWGp+swXHnpqWPfRBA5BOuPlPNnTmy9VkFFw0eQ1cf2tLARTmvpia4/46uWp237/JxyTo0gYCJyuvoYSjlJj7K8fOI5J5RuqwvfBElo8t0zyYXVjHGXWg5gRZJSaT4bVuhqs0nKzVfR8733/Rjv/OCs1COxZdN8+gkteaYsbn3V6zM2RoNqST9dLjLnj0jhFUSavLbcnKWf652hoh9/DFCahWw3ib3FLMTkXrHi06WyAmShy5ciYD/C1O8BWbM+hgGx8jGPz9+/C9AfnozxlsaByQg1274/c1Ay4AB06A/kDvpmExTIeukBoCFx1HfOxKmyc8NlkYpw4KBvA8r3NPuyvVSZiGeqY2oZg4olVRQWH1UwqpJg4MjvnW/YxMd9T3tFbrRl+mzbfD4cbi1v2Mfz1BzW9g0kaXNpuo9PvxAIBAKBQCAQCAQCgUAgEAgEAoFAIBAIBAKBQCAQCAQCgUAgEIjv4D+fuHeSUIPYagAAAABJRU5ErkJggg==;" parent="1" vertex="1">
          <mxGeometry x="-20" y="98.5" width="95.63" height="90" as="geometry" />
        </mxCell>
        <mxCell id="-Z6yPIl1t9Wa27zDCka9-6" value="" style="shape=image;verticalLabelPosition=bottom;labelBackgroundColor=default;verticalAlign=top;aspect=fixed;imageAspect=0;image=data:image/jpeg,/9j/4AAQSkZJRgABAQAAAQABAAD/2wCEAAkGBw8PDQ0NDQ0NDQ0NDQ0ODQ4ODQ8NDQ4NFREWFhURFRMYHyggGBolGxMVIT0iJSkrLi8wFyszODMsNygtLjcBCgoKDg0OFQ8PFSsZFR0rLSsrKysrLSsrKy0rKysrKysrLS0tKy0rKysrKystLSsrKy0rKystKysrKy0rKystK//AABEIAOAA4AMBEQACEQEDEQH/xAAbAAEBAQEAAwEAAAAAAAAAAAAAAQcGAgQFA//EAD4QAQACAQICAwsKBQUBAAAAAAABAgMEEQUhBgcxEiI0UVRhc3SBotETFkFCcZGxsrPwFDVyocEyM1Ji8SX/xAAaAQEBAAMBAQAAAAAAAAAAAAAAAQIEBQMG/8QAKREBAAICAAUCBwEBAQAAAAAAAAERAgMEBRIhMTJBExQiUVJhcTMjNP/aAAwDAQACEQMRAD8A+A+yUAAAAAABVAAQ3ETcBS1AEFoCEFLABiKtgWCWFJYsIiooI8GyAAAAKKIACoIKKUlhSAC0BRYtIBIIBYqCoEAqWCABSIA8G0AAAqgIAACWiigKgILRYAArECwpLFosKSwBQGMopYFgkyCWNduChAigAgCooCIKADIBASQLAsViKAgAIioLAADEUCmMyLSWrWb4IACAAkigAtFi0kyCWAACWLCCgiDIESxUtFBaYm4ACsRS0GMiou7UdABRBQEAkViCisRQAKLFosKQEkEsUtBJkWksAAWEmRZSxYgsWmMyhTGwosWktWm6FqpIUgAFi0xmRYgsUsQBBUsVAEUUSUKQEsUFYirYiWbrEMZlFSxYLGSSDECwR5NSnRAAFYgASKgAUWLTGwpLFASwLQSRUsVLAsZQkpuIFAyiGMglilgkyiwxFBB5tSnRsCwLFQEAFSZBLCgEFS0Xwp+/39x2j+sTco7m5ePukzIsVHhjEizFpabrUFiRlj92MzIvVjPulyMo7+CxSwSZTcSxUBBUAebUdIECgEABLFQAVEVBAmTylu96u+i2LUUyanV4oyY5n5PDjt/pnb/Vf74iI+yfM4PM+LmMoxwmnthjbtfmdw3yHD73xcr5jb+UvTpg+ZvDfIsPvfFPmNv5SdMM36x+G4NLrMePT4q4qWwVtNa77Tburc/7PoeUbMs8ZnKba+2ocq7H6eEuu6veC4dRnmdRSuXHal4rS0TtO23fONzTdlhhEYzU29teN+Wh/M7hvkWH3vi4HzW78pbHRB8zuG+RYfe+KxxW78pOnH7M56x+F4NLq8WPTYaYaW08XtFN+d+7tG/3RH3O/wAn257Mcuqbau6IiXJO3TXsEsUABAAHm1HRsGNiwWACItClJaLRYiTIySwot7HDtDk1ObHgwxE5Mk7V3naseeZ8XbPsePEb8dOuZlcYuW+cL0NNPhx4McbUxVisefaO37ZfG55znlMy2YinuMFAZJ1s+H4vVq/nu+j5LH0ZNXe43BhnJaKV7bcvHtH0y7OeUY43Lx8tO6FY4pqaUrvtXFeOfOfofOcxmcsb/bY1+XfOM2BEZP1t+Haf1WP1LvpOR+nNqcR5hwzvtaQQAAAAB5tV0AQUBDcoJkRFQAWkCkF8pLR+qng/+7rrxHPfDh3jnt9e338vZL53m/EdWXw49nvqhpEQ4r2UElJGS9bPh+L1av57vpuR/wCeTV3vkdG9LtW2afp72n9P0z9/4NzidlzTzxh23Q/wuPR3/wAONx8/84j9vbX5d247YERk/W54dp/VY/Uu+k5F6c2pxHmHDO+1pBAAAAAHm1W8gKqWioALSBQLSWKiFdmMy9vhOhtqdRh09OVst4r3W2/cV+tbb6do5/8ArX4vbGrTOS6+8t90GkphxY8OOO5pjpWlY80Rtv8Aa+MzynOZynzLdiKh7LCFFEkGVdZ+CcnEtPSO22npz8Ud3befY+h5Rl06smtu7vzx4q1rFaxEVrG0RH0e175TcvOX3uiHhkejv+Dn8f6Ieuvy7uHHbAiMn62/DcHqsfqXfS8i9ObU4jzDhneasgAAACKA8t3g3LEBlEIIC0xsWixYhJkWkREsWWLTeqvgfc0tr8m++SJx4K7bRGPfvsm/nmNvsjzvmeb8V1ZRrx8Q2tWFd2h1jlDjvdQASQ93BdNNPH8dXLy3/hqVjl2d/aZdjl2X0S1tnl8ZvzDzfa6H+F19HkaHH/5x/Xpr8u8hx2yIjJ+tvw3B6rH6l30vIvTm1OI8w4Z3mrIAAAigAryeDaBLGRYJMi0xtFSxYBUsYpM9nucI4dfVajFp8cc8lo3t/wAaRztb2Q8OK3xp1zlLLXj1N80OmpixY8WONqY6VpWN9+9iPH9L4nLKc85ylv49oexux9yHzNTxatNZptJtvfPTLknnHeUpHbMdvOZ5f0z4npjhM4zl7Jfd9RgqSDiOmvhNPQ1/NZ2OW+iWvt82590Hk+r0S1ERxDHj7bXxZLT/ANaxHb7f8S0uPx/5X+2eufqaFu4baFGT9bfhuD1WP1Lvo+R+nNp8R5hwzvtUFAEKBaApQV5U2LCmIohSSMoY2KWBYJJ++XatVkkx2ah1V8H7jFl1t6x3WfamL6dsUTzn2z+XzvlubcROezoj2benDs0Bx7bD8s+WtK2veYrSsTa1pnaIiI33mTHG5pJmoZh0W4rOs6QfxE7xW1M0Yqz9XFFdq+3bn7Xd4vho08HjHvbV153m1SHCbZIOI6beE09DX81nY5b6Ja+5z1rRETM8oiN5+yHRiO7xfl1eaicvGPlJ7Jw5e5iduVYjlH78bz5ph08PE/tdM/U118zPhuiksn62/DcHqsfqXfR8j9ObT4jzDhnfa9CIACgqpa0BQwpmEQSKlhSWLBYySZBjaA9/gXDLavVYdNTl3do7u3ixRztP27btXjd/wtMz7vTDG5b3pNPXHSuOlYpjpWtaVjsrWI2iHxE5TlMzLoY9ofvMpY4PrT418lgro6THd6nnk/64az/meXsl1+UcN8XZ1T4hr78+1OU6s/5ri9Hm/K6nOP8Az19peOjy2eHyreJQcR018Jp6Kv5rOxy70S8Nrh+kWq7mkYq9t+dufZTxbefb+ztcNh1TctbOXudV8/8A1K+hy/hDX51/jH9ZaPU2N8pPhvEMhk/W34bg9Vj9S76PkfpzanEeYcM7zWoQUUCgWAtRFCgIhBUBEEsUsGJ+/GV2tWp9V3A/ksNtbfnfUx3OOP8Ajhie37Zn+0Q+U5txfxNnTHiG7pxp3zkth+Gr1FMVL5MlorSlbWvaZ2iKxHOVwxmZiI8plMRDBePcVvrNTk1GSZ76ZileyKY4nva7PtuC0Ro1YxHn3c7Zl1ZS+11Z/wA1xejzflafO+2mP69NHls8Pk7bxIOH6dZIrnra07RXDEzPmi0uzy2LxmGvullmr1E5clsk8pnsjxV5REf2h9Lqx6cahpTNun6r/wCZ19Dl/CHK5x/hH9e2j1NjfKz4b6wyGT9bfh2n9Vj9S76LkfpzanEeYcM77wpUQAGVCSCAqisZkEtFLBLBiKAPZ4fhx5M2KmbLGHFa8RkyT9Sn1pjz7NfjNueOE9EXLKGzYOlfC6UrSutwxWtYrWO+5ViNojsfG5cPuym5wlv454x7v0+ePDfLsPvfBj8ruu4xll8TH7uT6weluHLp66bR5Yy/K2ic16bxFcdZ3iu/jmfwdTlnBZfF69kVDw3bImO0s4iH1Fdphpw6HoJrsWn4hjzZ8lceOMeSJvbsiZryhyuba8s9UVFvbRl9XdqXzw4b5bh974Pmfltv4S3evE+ePDfLcPvfA+W3e2MnXj93BdYvHcOoyY66XLXLWaRGS1d5isxNpiJ+3eJ9nndzlHD544z1xTW3TEuJd5rU6Tq/1+HT6+MuoyVxY/kskTa2+287bQ5PNteWWn6Yvu9tMxGXdp/zx4b5bh974Pmp4bbXpluTnj9yemPDfLsPvfAnht34yZZYs56yOKYNVq8OTTZa5qU0/cWtXfaLd3adufmmPvfQcn0568cuqKa+6YmnJu08BLULKC1AEWhCkejysEAFAQAAAQCo8AV2oFWBJ7+SOwlKFQBEV4J7mwKWUFeyiTESolUUKsCKAC0AuxaiDxezXEAAAAAAAABFAAAUUARkACiAAixAKCqFCSUMbZRAWtPF7tQAAAAAAAFoQoFiAKApUWgWIBaEsoChCgWgtVSZUSJWBbKEmVoSyhJllEKi08Gy0gAAABQSVEBVEkVFBQAUQgLUQABRBRRJWhF8BaiWypUKEZRAMoh4NpzgAABFBaBAF2RlQFAtAAsDFaAABV2JUSyhLKC2VCTLKIXZChjMrQlsqC1EWIBk8G45gigAoAKqLAAFAsCKCCLArIS0C1pRRiCTLKIC1pWNlCWsQFsqEWgtlQkrAigPBuOZQAKCqALQi0BQigACKAIqgIyEsEWIVGUQDISVoRRLUQBQAUB4NxzQFRlEAUACiTKiWAtEhQFKAiwJbKgsoS2VKxtaCZWhjaxAWtCWyoS1AoFoAAAB4ttz6AAEZACRILKwICKpMglgWtBaxAxZUuxZEDG2UQDISQRlECStCAqgAAAAAP/Z;" parent="1" vertex="1">
          <mxGeometry x="570" y="95.75" width="48.5" height="48.5" as="geometry" />
        </mxCell>
        <mxCell id="-Z6yPIl1t9Wa27zDCka9-8" value="Cloud&#xa;Storage" style="sketch=0;html=1;verticalAlign=top;labelPosition=center;verticalLabelPosition=bottom;align=center;spacingTop=-6;fontSize=11;fontStyle=1;fontColor=#999999;shape=image;aspect=fixed;imageAspect=0;image=data:image/svg+xml,PHN2ZyB4bWxucz0iaHR0cDovL3d3dy53My5vcmcvMjAwMC9zdmciIHhtbG5zOnY9Imh0dHBzOi8vdmVjdGEuaW8vbmFubyIgd2lkdGg9IjIwIiBoZWlnaHQ9IjE2IiB2aWV3Qm94PSIwIDAgMjAgMTYiPiYjeGE7CTxzdHlsZSB0eXBlPSJ0ZXh0L2NzcyI+JiN4YTsJLnN0MHtmaWxsOiM0Mjg1ZjQ7fSYjeGE7CS5zdDF7ZmlsbDojNjY5ZGY2O30mI3hhOwkuc3Qye2ZpbGw6I2FlY2JmYTt9JiN4YTsJLnN0M3tmaWxsOiNmZmY7fSYjeGE7CTwvc3R5bGU+JiN4YTsJPHBhdGggY2xhc3M9InN0MiIgZD0iTTAgMGgyMHY3SDB6Ii8+JiN4YTsJPHBhdGggY2xhc3M9InN0MSIgZD0iTTE4IDBoMnY3aC0yeiIvPiYjeGE7CTxwYXRoIGNsYXNzPSJzdDAiIGQ9Ik0xOCA3bDItN2gtMnoiLz4mI3hhOwk8cGF0aCBjbGFzcz0ic3QxIiBkPSJNMCAwaDJ2N0gweiIvPiYjeGE7CTxnIGNsYXNzPSJzdDMiPiYjeGE7CQk8cGF0aCBkPSJNNCAzaDZ2MUg0eiIvPiYjeGE7CQk8cmVjdCB4PSIxMyIgeT0iMiIgd2lkdGg9IjMiIGhlaWdodD0iMyIgcng9IjEuNSIvPiYjeGE7CTwvZz4mI3hhOwk8cGF0aCBjbGFzcz0ic3QyIiBkPSJNMCA5aDIwdjdIMHoiLz4mI3hhOwk8cGF0aCBjbGFzcz0ic3QxIiBkPSJNMTggOWgydjdoLTJ6Ii8+JiN4YTsJPHBhdGggY2xhc3M9InN0MCIgZD0iTTE4IDE2bDItN2gtMnoiLz4mI3hhOwk8cGF0aCBjbGFzcz0ic3QxIiBkPSJNMCA5aDJ2N0gweiIvPiYjeGE7CTxnIGNsYXNzPSJzdDMiPiYjeGE7CQk8cGF0aCBkPSJNNCAxMmg2djFINHoiLz4mI3hhOwkJPHJlY3QgeD0iMTMiIHk9IjExIiB3aWR0aD0iMyIgaGVpZ2h0PSIzIiByeD0iMS41Ii8+JiN4YTsJPC9nPiYjeGE7PC9zdmc+;" parent="1" vertex="1">
          <mxGeometry x="307.75" y="237.5" width="42" height="34" as="geometry" />
        </mxCell>
        <mxCell id="-Z6yPIl1t9Wa27zDCka9-9" value="Cloud&#xa;Storage" style="sketch=0;html=1;verticalAlign=top;labelPosition=center;verticalLabelPosition=bottom;align=center;spacingTop=-6;fontSize=11;fontStyle=1;fontColor=#999999;shape=image;aspect=fixed;imageAspect=0;image=data:image/svg+xml,PHN2ZyB4bWxucz0iaHR0cDovL3d3dy53My5vcmcvMjAwMC9zdmciIHhtbG5zOnY9Imh0dHBzOi8vdmVjdGEuaW8vbmFubyIgd2lkdGg9IjIwIiBoZWlnaHQ9IjE2IiB2aWV3Qm94PSIwIDAgMjAgMTYiPiYjeGE7CTxzdHlsZSB0eXBlPSJ0ZXh0L2NzcyI+JiN4YTsJLnN0MHtmaWxsOiM0Mjg1ZjQ7fSYjeGE7CS5zdDF7ZmlsbDojNjY5ZGY2O30mI3hhOwkuc3Qye2ZpbGw6I2FlY2JmYTt9JiN4YTsJLnN0M3tmaWxsOiNmZmY7fSYjeGE7CTwvc3R5bGU+JiN4YTsJPHBhdGggY2xhc3M9InN0MiIgZD0iTTAgMGgyMHY3SDB6Ii8+JiN4YTsJPHBhdGggY2xhc3M9InN0MSIgZD0iTTE4IDBoMnY3aC0yeiIvPiYjeGE7CTxwYXRoIGNsYXNzPSJzdDAiIGQ9Ik0xOCA3bDItN2gtMnoiLz4mI3hhOwk8cGF0aCBjbGFzcz0ic3QxIiBkPSJNMCAwaDJ2N0gweiIvPiYjeGE7CTxnIGNsYXNzPSJzdDMiPiYjeGE7CQk8cGF0aCBkPSJNNCAzaDZ2MUg0eiIvPiYjeGE7CQk8cmVjdCB4PSIxMyIgeT0iMiIgd2lkdGg9IjMiIGhlaWdodD0iMyIgcng9IjEuNSIvPiYjeGE7CTwvZz4mI3hhOwk8cGF0aCBjbGFzcz0ic3QyIiBkPSJNMCA5aDIwdjdIMHoiLz4mI3hhOwk8cGF0aCBjbGFzcz0ic3QxIiBkPSJNMTggOWgydjdoLTJ6Ii8+JiN4YTsJPHBhdGggY2xhc3M9InN0MCIgZD0iTTE4IDE2bDItN2gtMnoiLz4mI3hhOwk8cGF0aCBjbGFzcz0ic3QxIiBkPSJNMCA5aDJ2N0gweiIvPiYjeGE7CTxnIGNsYXNzPSJzdDMiPiYjeGE7CQk8cGF0aCBkPSJNNCAxMmg2djFINHoiLz4mI3hhOwkJPHJlY3QgeD0iMTMiIHk9IjExIiB3aWR0aD0iMyIgaGVpZ2h0PSIzIiByeD0iMS41Ii8+JiN4YTsJPC9nPiYjeGE7PC9zdmc+;" parent="1" vertex="1">
          <mxGeometry x="519" y="228.5" width="42" height="34" as="geometry" />
        </mxCell>
        <mxCell id="-Z6yPIl1t9Wa27zDCka9-10" value="Raw data" style="text;html=1;align=center;verticalAlign=middle;whiteSpace=wrap;rounded=0;" parent="1" vertex="1">
          <mxGeometry x="291.25" y="288.5" width="75" height="30" as="geometry" />
        </mxCell>
        <mxCell id="-Z6yPIl1t9Wa27zDCka9-11" value="&lt;div&gt;Processed data&lt;/div&gt;&lt;div&gt;&lt;br&gt;&lt;/div&gt;" style="text;html=1;align=center;verticalAlign=middle;whiteSpace=wrap;rounded=0;" parent="1" vertex="1">
          <mxGeometry x="495" y="288.5" width="90" height="30" as="geometry" />
        </mxCell>
        <mxCell id="-Z6yPIl1t9Wa27zDCka9-18" value="Web source" style="text;html=1;align=center;verticalAlign=middle;whiteSpace=wrap;rounded=0;" parent="1" vertex="1">
          <mxGeometry x="-130" y="128.5" width="60" height="30" as="geometry" />
        </mxCell>
        <mxCell id="-Z6yPIl1t9Wa27zDCka9-19" value="" style="endArrow=classic;html=1;rounded=0;exitX=1;exitY=0.75;exitDx=0;exitDy=0;entryX=0;entryY=0.5;entryDx=0;entryDy=0;" parent="1" source="-Z6yPIl1t9Wa27zDCka9-1" target="-Z6yPIl1t9Wa27zDCka9-3" edge="1">
          <mxGeometry width="50" height="50" relative="1" as="geometry">
            <mxPoint x="200" y="328.5" as="sourcePoint" />
            <mxPoint x="250" y="278.5" as="targetPoint" />
          </mxGeometry>
        </mxCell>
        <mxCell id="-Z6yPIl1t9Wa27zDCka9-21" value="" style="shape=image;verticalLabelPosition=bottom;labelBackgroundColor=default;verticalAlign=top;aspect=fixed;imageAspect=0;image=data:image/jpeg,/9j/4AAQSkZJRgABAQAAAQABAAD/2wCEAAkGBxMTEhUTEhIVFhUVFRUVGBgVFRgVFRcXFRUWFxcXFhUYHSggGBolGxUVITEhJSkrLi4uFx8zODMtNygtLisBCgoKBQUFDgUFDisZExkrKysrKysrKysrKysrKysrKysrKysrKysrKysrKysrKysrKysrKysrKysrKysrKysrK//AABEIAOEA4QMBIgACEQEDEQH/xAAcAAAABwEBAAAAAAAAAAAAAAAAAQIDBgcIBAX/xABUEAABAgMDBAkNDAgGAwEAAAABAAIDBBEFByESMUFRBhMiYYGRk7LRCBcyNFJUcXJzobHS4hQWIyQ1U2N0kqKj4RUlQmSCs8HwM0NEwtPxVWKDRf/EABQBAQAAAAAAAAAAAAAAAAAAAAD/xAAUEQEAAAAAAAAAAAAAAAAAAAAA/9oADAMBAAIRAxEAPwC8VAryby4VmFsJrNtjuGVkVyWtboLzv0NPAp6su34Y2tGroZD5qCSC/wBmO84XKO6EXX+mO84XKO6FNbFuosuJLwYjoBLnwobidsdnc0E+crt6z9k97u5RyCvTf7Md5wuUd0I23/THeULlHdCn0S6OyR/p3V1bY5eZshuZkYku8SjTCjgVYS8ltR+y4HQUE02GbK4Noy4jwTjmiMJ3UN/cu3tIOkL3gVkjYrsgmbHnXEscC121x4TsMoA4g7+kHpWorDtyDOQGTMu/KY8cIOljhocDgg9UlBIhGuOn0JxAQKBKRF1ooZqcc+pA4EAUaREzVQKJQCaY6px4k8gKqNJeMMU2x1c//aB0FCqNE4IDRApkPrgThr1p9AVUaIhM5eiuGtA9VAlABGgCCaytH9hOhAEEEEBErLl+HytG8WFzVqMrLl+PytG8WHzUGjdjoIlJcj5iFUfwNXpuiimGJOZebsdiUk5bWYEKg/gau4Qy3dZ9Y6EDsNlMTnRPZpGfSNaW11cQie+iCtb3Lv22hC90S4Am4YpTNtrR+wf/AGGg8CoezrQtCUymQHTEEE7prQ5u6GGIpn0LXm1nstOpLDGuxyRwgVQZNbsrtbvmb+90Ie+u1++Zv7/QtZPhtArkjiCa9z13VBXVQIMpnZTa/fE39/oQGyi2O+Jz7/QtZQ6HRTgSjQaPMgyVE2YWtDo4zU00A53ZQFf4hRXjc7sziWlAiNmKGNLlgc4Cge14dkuI7qrXA+Aa1y3+/JdSKfGIPoiKN9TR2U94Jb0x0F4xGV8KJkTQcCEslMluVjmGhAYGVic2jfTj2VCTDfoOcJxA0x9MHZ9etF2Xi+lE4ZfgHnSobqbk8G+gW5gIokNdQ0PAU6mX7rAZtJ6EALso0GbSf6BOZApTQm4ZydyeAp5AyDk4HNoPSjc6poOEoojq7kcJQbucDm19KB1raCiICiUiqgNBEjQBZcvvH62jeJD5i1ESsuX4fK0bxYfNQaO2Kt+Jy507RC5gXfOzIhQ3xHdixrnHwNBJ9C83YxVsnLHRtEKu9uBil7KXj3HMb8CLzHIM1W3eNaM3Hc6HGiQ2knIhQagNbozYuNM5XD74LW+em/v9C9W48A2vAFP2Iv8ALK04+CBiGjfFB5kGT/fBa/z05xP6EYt+19Mac+/0LWJyKVoOIIocEHEgbwpmQZONv2v89OcT+hH+nrY+dnOJ/QtYRIIzgDwUzpQLaVoOJBk0W9a+mLOcT+hGbdtf52c4onQtXsh1NSBTQKelHEg6QBXwZ0GRbRnLTjs2uMZqIyodkua8iorQ0pvlM2W60JbK2hszCyqZWQx7a0rSuGip41sFjmkZgKZ0lrMo1ph6UGUXW5bGiLO8UToRfpu2fnJ3iidC1jEhA5sChDcDnABGdBk/9NWz85O8UToQNtWx85O8UToWrqZXi+lLiQgRhhqQZc2OXl2jJTAMaLEiMDgIkGLnI00ri11My1ExzXtDhmcA4HeIqCsoXsD9bTh+l/2NWo7JqYEEDNtUOp/gag6A8nc14da6GimZJdDFKJLH40Of0oHHtqKFc+WexrvV/vSnHurgOE6krahSiA2NoKBGRVNtdTA8BQe/QM/oQJyqYV/JPNCJrABRAYIFIIIICKy5fj8rRvFh81akWXL72/raNvMh8xBozYy+klLeQhcwJrZLDIlJg/QReDcOTmxJnxOWJz7RC5gTmyntOZ8hF5hQZuuO+WIHixf5ZWo3vAFSst3Jvpa8DxYn8srUENtd0eAakCAw9lTgXQ11RUI0y8ZOIzaQgdc6mJXOWE7qnBrS2DKxObQOlPIEseCMEZKbiNpuhw76S3d46Bo6UCXMLsQPzT0N9ehLTURmkZ/SgdXO9uVm0adaNrsveGnfTwCBEJ9cMxGhOFNxIdcRgQmw8uwza/yQZUvXP63nfK/7GrUliO+AhDVCh8xqyzex8rznlf8AY1amsplZeDr2qHQ/wBB3pmLusBx6kkRCdzmOk9CeY0AUCBuEabk/9p5JeyqZ2w9jp1oFRjXcj/pCFucDp0605DZRG5tcCgNESmg4jDiTrQgCCNBARKy5fgf1tG8SHzVqMrLl+PytG8WHzUGidijsmTltW0QuDcBPbKnfE5jyEXmOTexVwEjLV+YhcwJvZKwiUmCRhtEWm9uHIM7XJfK8v4sT+WVqAjJxGbSNSy9cl8ry/gifyytTOcAMUBF4pXQm2tyjU5tA6U2G6abmub+q6QUDbm0NRwhLDxSuhGSuYtriBhq176BwDKxObVrRvZTFvCNacY4EYI0CWPBFU32Xi+lIeK1IzcVVTl418joUR0tZwbVhLXxnDKAIwLYbcxodJrmzILnfD0twI86VDiA/1WTX3mWsTUz0XHVkAcQbQIhePammfjcbehBrAuysBm0n+iN8LDDAjMsnG8i1e/4vG3oRdcm1e/43G3oQKvY+V5zyv+xq1JZLiYEFo+ah1OrcNWObQtCJHiPixnl8SIaucc5NAKmm8AvfZeJajQGtnooAAAALcABQDMg1mYQphhTMUcOJoOf0rJnXJtXv+Nxt6EYvItXTPxuNvQg1jEiaG5/Qj2kUp59NVk7rkWqMRPxeNp/orouovNbPgS0yQ2aAwOAbGA0t1O1jiQWQx+g5/SjiRNAzpMc1w0+hFBwNDn160DjYeGKNqUiKA0ESCAysuX3t/W0beZD5i1ESsuX4H9bRvEh8xBonYgyslLE/MQ6fZCe2VdpzPkIvMKY2IPpJStcxgQ8f4Qn9lR+JzPkIvMKDNlyzgLXl/BE/llaia3KxObQP6rLtyoH6Xl/BE5hWoux8X0IHkyRk4jNpGpOl2lNAZWJzaN9AAMrE5tG+nkyRk4jNpGpOg6UDb20xHCEVcrxfSh2Xi+lBzcnEcIQeHeDaDpezZuLDNHNgvySM4LtyCPBlV4FnO6TY9DnrQbCjDKhw2PjOb3eRQBp3iXCqv+9d1bInCPmv97VTXU+t/WjxrlYvPhINAwLMgABsOBCa0YUENgA3gKLpFnQfmof2G9CddDpi3i1pbH1CDkiWbCziFDr4jcfMkCThHAQYY17huHmXW91TQcJ1InQqYtzjzoGxZsH5qH9hvQkvs2FohQ6+I3oXTDfXw6QkxH6G5/Qg5PckI4CDDrp3DcPMnW2bBH+VD+w3oTpgYYZxpSocSuBzhBn/AKoyC1k1KhjWtBgurkgD/M3lWjrOjwIcCbo5sOIXGFEaf24biCKjsXAitFZ/VIj43K+Qd/MUyursaDN2BCgR2BzHmNUHQRGfRwOgjWgK6W8pk6BLTJDZoDAnARgNI/8AfWOEKzXsqsobPNhsxZMyCC7ay7Kgxm4YjHJJHYvHnzq4rqbzWzrBLTJDZpoo05hGA0jU8aRp0ILKDyMDn9KcaEhsPXnSmnWgUggggIrL1+sMi1otR2UOGR4Mmn9CtQkKqL8Ng0SbhtmpduVGgghzR2USHn3OtzdWqqCcbCJlkSzpV7TVpgMHEKEeGoSNl0wIcjMviGjGwIuffYQOE1pwrOWw+8Kcs0GFDyXw6kmFFBo12mmYtNc4R7NryZy0miHEyYcEEO2uHUBxGbKJNXU1ZkHTcjDJteBQZmxCfAGFaldmxWRtgmy99mxnx4cCHEiOZkAxC7cgmrsnJOmg4lNYl/M2c8rL8cTpQX0N+uTX++BdYWe+v5N96S/HE6UUO/mbGaVl+OJ0oNClcp3q5Nf74FQsS/mb0ysv4KxOlAX+TfekvxxOlBoNtKYI1nqHfzNjNKy/grE6Ub7+psjtWX44nSgtC9b5KnaZtqHgrtjFUPU9/Kr/AKtF58JNbJL45mblYsq+WgsbFbkktL6jEHCppoS+p8d+tHb0rF58JBpRQ7ZPeDZ8lGMGPMFsWgLmshvfQHNlFooDvZ1Ky/KwbwnUqm2e3NvnJt8zAmWM22hc2I1xo4AAlrm6DTNoQe8y+KyAP8d/IRfVR9eSyO+H8hF9VV8bhJqnbcD7MToTbbh5k5puAf4YnQgsGLfBZOcTDwde0RPVSod8NkAf47+Qi+qoA64SaP8Aq4H2YnQh1hJqlPdcD7MToQWLAvgshzg33SRUgVdBiBorrOTgN9TSI4Ghaak4gjNQ6a6lQsvcNHLgHzkLJrusljy6mmgNBXwq+bPk2wobIba0YxrATno0ACvEgoTqjWH3TKmh/wAF4rvh6sK4iO11kQWgglj4wcNIJiucAeBwPCuq9nYUbSlQIVBHgkvh1wDqijoZOiozHWBoqs+2Jsgn7IjPbDc6C7M+FEbVpIzEsPpCDU+yGyoM1BdAjsD2vFKaQdDgdBGtZh2d7DpmyZkEF21l2VBjNwzYgOI7F48+cL1uvXala5UDkh0ritq9Wem4LoEw2XfDeKEbSK7xBrgRrQW1dNeY2eaJaZIbNNGBzCMBpGp+sac4VmlYkl4jmOa+G4tc0gtcDQtIzEFakui2VRLQksuMPhYTzCc4Zn0AIdTQaHHwIJujQQQESkZNc6OK8NBc4gAAkk4AAYkk6lXs/fRZcN5YHxIlDTKhw6tNNRJFRvoPdtrYRITTqzMrDc4/tgZDjvFzaFeYborH71PLRfXXluvusw4FsxyY9ZIF9dm6RMED6IefdIPUh3R2ScfchA8rFqfvIjdJZAOMqaHTtsXz7pcHXws3uZjkx6yBvvsw4ZMxyY9ZB6fWhsfvU8tF9dIZdJZBOEqaD6WLj95eX16rNzfGKeSHF2ScF+FmdzH5Mesg9B90lkA4ypofpYuH3kvrQ2P3qeWi+uvMN+FmdzH5MesmuvXZuYCYp5Iesg9QXSWQThKmgznbYvrI4l0lkjH3ISNPwsXD7y88X32YMMmPyY9ZDr4WbqmOTHrIOC8G7WzJazpmPAl8mJDh5TXbbENDlNGYuoc6hHU+D9aPH7rF58JSbZverIzUjMS8ERg+KzJblQwG1ymnPlYYAqAXUbJ4Nnzzo8wH5Bgvh7huUcpzmEYVGG5KDU5Zk4jNpH9U611cQo9sS2aydohxlolXM7JjgWvbXTknON8YL2YhodzwoHIj8aNz+hFtVMW59O+lQQKYJxAlj6pMSJoGdIimh3OfUlQAKV06UBbSRiDj6UuG+qWmI2BBHZenwoHIj6eErzLV2PS8yPjECFFOf4RgdwYr0IFM+nSnkEXh7BLLOBs+WB1bU1HE2CWWP/z5bkmqQxwM+nQig4kk9l6PAgou/fY7KysCWdLy0KE58R4dtbA2oyMAaZ1Iupz7RjfWDzGrj6pPteU8q/mLr6nPtCN9YPMagtpBEgghF9Mw5lkTGSaZWQw07lzxUcIwVDXcbCRakWLD27atrYH1ycqtXUpnFFed+HyRH8aFzwq76nFlZmaH0LOeg9BlwNf9d+D7SULgP3/8H2ldjH0wPBvpxBRjrgwDjPfg+0hDuCrmnsPI+0rtO78X0oMdk4HgKClesB+//g+0kRLgwDjPcO0+0rzTLjlYDNpPQgpJtwQJwnvwfaS+sB+//g+0p7eZskj2bJGPAaxzhEY0bYC5tHHHBpBrwriuh2aTFpwo75hsJphxGtbtTXNFC2uOU4oIbEuCpnnsPI+0iFwYrhPV/wDj7S9G9O8+cs+dMvAZALNqY+sRj3Oq7KriHgUwGhWXZM690rCjOAq+C2IaDAOLA40GqqCpjcB+/wD4PtJifuI2uG5/u2uQ1zqbVqBPdby6bvb256dtCBKxocuIcUxMosY8O3MJ7xQmIRnaNCt623/ARQM+1P4NyUGZLmo7mWtL5JpllzDvtLTUeYKW3nXkWlKz8SXl3iBDh5IHwbHOiVAO2Fz2nPU0pQYKG3RO/W0p455pWop2yZeOQ6NAhRSBQGJDa8gbxcDRBmRl7Vr9+Z/oYPqIxe3bHfg5GB6i0bE2NSOYSUtXyEP1UR2LSYx9xyx1jaIfm3KDOIvbtcZpv8GD6iNt7Vr17b/Bg+otIt2MSJFRJS3IQ/VSYmxqRH+ilq+Qh+qgziL27Y78HIwPUSeu3a9e2/wYPqLRx2KyYFfccsTpG0Q6c1LZsZkSO0pbkIfqoM3i9q16191/gwfUR9du2O/ByMD1Fo+JsakR/opbkIfqpHvUk6V9xy1dW0Q6eDsUFAWHezapmYQdGEYF7WmGYUMZYc4AgFrQQd8FaWLagHMaf2CuCRsOUY4PhysBjxpbCY1w8BAqvSe+gQU11RxrLymvbX8wLu6nQfEY31g8xq4eqOPwEoT87E5i7upz7RjfWDzGoLZQQQQQG/D5Ij+NC54VedTb21NeRZzyrKvnyP0RM5dczMmndZbacGdZkstszU+5duJputpy60r+1kaK60G0HtBCZbU4GtPAcVkjItSmae4o6LItTuZ7ijoNfhE9oIoVkJzLU1T346DW2pqnjy6DWwr2ONNdCuhopgFj/a7U7me4o6MttTVPfjoNYW3YsCbh7VMwhEh1DskkgVGY4ELisPY9LyQeyUgiE15Bdk5RqQKaSdCy41lqap7ijobXancz3FHQaetnYPZ81E22YlWxImSG5RLwaCtBgRrK9uBKsZDEJraMa0MDcaBoFAOJZHLLU1Tw4I6JrbU1T346DStm7BbPlYzY0vKMZEZXJeNsJblAtOdxBwJ417lqspLxQPm380rJ2Rancz3FHRRGWnkmonQKGtRHpTTVB6F0HyvK+OeaVqh5yThp0at9ZduZDf0tL5Vf28mnd5Bya7y0Ta+y+Qk37VMzUOHEIDi01LqHNUNBpwoPegsAFc9dKcUMF5lkg4T0Oh0Uf5tylvvPsnRPQ+J/qoJTE3JqNOj+qVBGnOSolDvLskYmehk+B/qpJvMskGonoe+KP9VBNEzGwNRn1a1FTefZPf0Pif6qQy8uyc5nodfA/D7qCWwRXdHP6E8oY+8uya1E9Drpwfj91L659k9/Q+J/qoJVGFN0MD6UULdGpzjRqUas7Z/ZkaI1jJ2E57jRrd03E5hVwAqpREZpGf0oKe6pPteU8q/mLr6nPtCN9YPMauLqj3Vl5Tyr+Yu7qcx8RjfWDzGoLYQRoIIDfh8kR/Ghc8Ku+pxb8ZmhX/JZzyrEvw+SI/jQueFXnU29tTXkWc8oL9hv0HP6U4kRGV8OtNB5dueM6/AgU45WAzDOehHDdTcngOtONFMyJ7KhApNPdXAcJ1JGWexrw/3pTzG0FAg8y17bgycPbJqIIcOoGWQ4ipzDcglFsf2SSs61zpSMIoYQ1xAcKEioG6AXj3obGY1oSRl4DobXmIx1YhLW0aanFrSfMvIun2ITFmQo8KO6EXRYjXAwnOcAA2hrlNGKCQbINm8hKRNpmJlsOJkh1C15o11aHctOor2JabaWNiB2VDe0Pa7HsSKg445lVV591s5aE77ol4kBrNqYz4R72uq0urg1hFMRpVoWZIOhykOA6hcyA2GaVycoMDTQ0rSqDy7I2f2bMxWwIE218V9clobEBNGlxxLQMwJ4F61uP+AigZ9qic0qntgV1M7I2hLzMaJLFkIvygx7y7dQnsFA6GBncNKuG1YdJeNr2p+P8JQZfuid+tpTxzzSrGvEugmpydiTUtGhZMWjnNiuc0tcABRpa11RhvKuLoPleV8c80rVLnZGGcaN78kGdTcZaQ/zJXgiRP8AjSn3G2lTGJK8ESJ/xrRkNmnOTpTiDNwuKtL52U5SJ/xpLrjLSGeLK8pEr/LWjHnIzZjo6EqE39o4k+ZBnV1xtpU/xJXlIlf5aQ24u0jmiynKRP8AjWkkzE3OI4R0IM5uuLtIZ4spykT/AI0vrGWlT/EleUiV/lrRMIV3R4N5PIM82LcdO7dDdFjy7YbXtc4w3Pc+jSDQAsArhrWgxRoGoADiSYopuhw76KHusTmGYdKCnuqOPwEoSKfCxOYF3dTn2jG+sHmNXH1Sfa8p5V/MXZ1OfaEb6weY1BbKCJBBB76YDn2RMZIrk5Dj4A8VPnVEXcbNf0VFixNp23bGBlMrJpR1dRV6X3PIsiPQ0qYYO+MsYKm7n9h8vaMaNDmcukOG17ch2TiXUxwQS19/p7x/F9lJN/n7jmzfC+ypOy5SzD8/Xyv5JfWQsz6flfyQRgX/AJ7x/F9lE6/407R/F9lSTrK2ZWg2/f8AhcPQjbcrZhNDt4PlfyQRjr9ilPcP4vspYv8Aj3j+L7Kk/WQsz6flfyTZuVsytBt+/wDC5vMgjhv+NO0fxfZSBf2KU9w/i+ypMLlLMrQ7fvfC5/MnOshZn0/K/kgi7L/j3j+L7KM3/nvH8X2VI33K2YDQbeT5X8kDcrZlaER947b+SCMi/v8Acc+f4X2U3MX7F8N7PcXZNc3/ABc2UCNSl3WQsz6flfyXLadzVmw4T3N2/Kaxzh8LpDSdW8gqi5qXc615bJFckucfAGmpWqIcPXiTnWVroIhFrStDSrnA+AtNVO7yb2Z2VnoktLshsZCo2sRmU55IBys+AxwQXZ2Pi+hLfEp/RZoF9dqn9qByX5ohfTaYzOgckPNig0vDZpOf0JJGTiM2kalmvr22r3UDkvzQF9lqn9qByX5oNLuiACqSxlTU8A1LNIvntOuDoHIinpRm+y1e6gcl+aDSrm0xHCErbBSuhZoF9lq91A5L80OvPadeygciKV40GlWtysTm0DpQeyhqOEa1nexr67SMeG2K2FEY57WlrYeS4hxA3JBz4rRbX1AObCuOhBTXVIOrLylPnX8xd3U5j4jG+sHmNXD1RprAlTm+GicwYrv6nQfEY31g8xqC2EEEEECvvP6oj+NC54Vd9Tb21NeRZzyrEvw+SI/jQueFWvU9TkOFMzJixGMBgsoXuDa7s5qoNCRGVxGBCb2wuwGB0/kuCJsgljgJmDvnbG9KJ1tSlMJmCCPpG+fFB6rG0FAiiMr4da85myKVOeZg18o3pSYmyGVzCZg18o3DzoO/bT2OnWnYbKLyv0zKU7Zg117Y3pSoeyGVzGZg18o3pQRm+a140rZxiy8Qw4giwxlNpWhOIxXj3H7JZmbgTBmYzormxWNaXUwBbU5hrU7mbck3ChjwHbznsI8OJSINpyTQQ2PAFcTkvYMeBBT18mzCek7Q2qWmnw2bTDdRtKZRLqnEbwVy2PHdEkYUR7qudLseXaS4wwa+GqaNrSTju40s46y5hJHCnnW/KAUExB1AbY2npzIKKuv2d2hMWpLQY03EiQ3mIHMdk0NIMQitBrAPAr7tVlJeMTnMJ/NK4oU/IDHbZYO1h0MEeAhNWnb0ttEVvumCaw30+EbjuThnQZwuh+V5XxzzStKWvsck47g6ZlYMZwFGuexrnU1VOhZruh+VpXxzzStWMh1xdiT5kEdh7ALMzmQlsfom0CX7wbM/8fLck3oXvNOTgc2g/wBCnHvoEEXdsEsxueQliPJNqEqHsBsw4mQlvBtTVI2sri7gGpF2Pi+hB4PvBsz/AMfLck3oTT9gdmNx9wS1PJNwUoc4AVTTW5Rqc2gdKCOw9gVmHH3BLU0Dam+dOe8GzP8Ax8tyTehe8Rk4jNpGpO5QpXQgj0tsNkIL2xYUlAa5pqCIbQRvtOgr3G7rHR6UAMrPm9KNzaYjhCCnuqT7XlPKv5i7epz7QjfWDzGri6pE1l5Snzr+Yu3qcx8RjfWDzGoLYRoIIPJ2V2EyelIsrEJAiNoHDO1wNWuppoQMNKzrO3P2pDeWtgtitBNHMeKEaDQ4jwLUCCDKpumtXvX77OlDrS2t3r99vStUFqBQZYbdPavev32dKI3T2r3r99nStUtbREWoMr9aW1u9fvt6UG3T2r3r99vStUoNagys66e1e9fvs6UOtLa3ev329K1S5qCDKwumtXvX77OlG66e1e9afxt6VqcNRubVBlV109rAdq/fb0qFuhEOLXChaSCCKEEGhBGtbdCq+8K6GHOvdMSzxBjOxe0isOIdeHYu8xQQm5+y5OBGbOzc7LtLWna4YiboFwoXRNRArQb6uf38Wd37A+2FQzrk7UBwEA//AF9lE65W1O4g8r7KC+XbN7NP+tgfbCbh7NLOrjOwMM3wgwVF9ZW1O4g8r7KIXKWr3MHlfyQX17+LO79gfbCHv3s7v2B9sKhnXK2p3MHlfZQFytqdxB5X2UF5t2Z2dXt2BTQNsCe9/Fnd+wPthUL1lLV7mDyv5I3XK2p3EHlfZQXz7+LO79gfbCZ9+dnV7dgUrm2wKjBcrancQeV/JF1lLV7mDyv5IL69/Fnd+wPthA7ObO79gfbCoY3K2p3EHlfZQbcrancwOV9lA/fVs2gz0WFBljlQoOU4xND4jqDc1/ZAGfSTvKzLhrJdBsxr3ggx4jooB7jBrTw5JPgIUY2HXGlsRsW0IjXBprtMOpDiND3n9neCuyHDDQGtAAAAAGAAGAACBSCCCAIIIIAiRoIAggggJGgggCJBBAaCCCAijQQQBEUaCAIIIICKNBBAEEEEAQQQQBBBBAEEEEAQQQQf/9k=;" parent="1" vertex="1">
          <mxGeometry x="-110" y="248.5" width="70" height="70" as="geometry" />
        </mxCell>
        <mxCell id="-Z6yPIl1t9Wa27zDCka9-22" value="Other source" style="text;html=1;align=center;verticalAlign=middle;whiteSpace=wrap;rounded=0;" parent="1" vertex="1">
          <mxGeometry x="-114.99" y="328.5" width="79.99" height="30" as="geometry" />
        </mxCell>
        <mxCell id="-Z6yPIl1t9Wa27zDCka9-23" value="" style="endArrow=classic;html=1;rounded=0;entryX=0;entryY=0.5;entryDx=0;entryDy=0;exitX=1;exitY=0.5;exitDx=0;exitDy=0;" parent="1" source="-Z6yPIl1t9Wa27zDCka9-21" edge="1">
          <mxGeometry width="50" height="50" relative="1" as="geometry">
            <mxPoint x="90" y="380" as="sourcePoint" />
            <mxPoint x="260" y="260.75" as="targetPoint" />
          </mxGeometry>
        </mxCell>
        <mxCell id="-Z6yPIl1t9Wa27zDCka9-25" value="Cloud" style="text;html=1;align=center;verticalAlign=middle;whiteSpace=wrap;rounded=0;" parent="1" vertex="1">
          <mxGeometry x="381.25" y="328.5" width="60" height="30" as="geometry" />
        </mxCell>
        <mxCell id="-Z6yPIl1t9Wa27zDCka9-28" value="" style="shape=image;verticalLabelPosition=bottom;labelBackgroundColor=default;verticalAlign=top;aspect=fixed;imageAspect=0;image=data:image/png,iVBORw0KGgoAAAANSUhEUgAAANoAAADnCAMAAABPJ7iaAAAAw1BMVEX///97QrwAAADWyelzMrh5PruNYcSHV8Knp6fV1dUyMjKVlZXz8/Pg4OD6+vro6OgqKirAwMCLi4u2trZKSkqYmJjMzMxxLrh4PLtuJ7Z2OLp6enqurq5tJbbu7u6BgYEfHx/59/xjY2NaWlrRwuY/Pz8ODg5PT09tbW3Q0NDu6fbAq91+R73g1u6EUcA3Nzeee8y3n9nn4PKUa8fy7vjJt+KigM6tkdQXFxeoiNG6o9rbz+uRZ8aZc8rNvOSgfs1mDrPPosafAAAJUklEQVR4nO2cCXeiPBSGQ2pbVEDBvVC1WrdZ6uzjLN/M/P9f9WVhSZCtigZy8p4zU8UQ7iNZ3lxAAJSUlJSUlJSUlJSUlJSUlJQuojeiA7icXn48iQ7hUrprjN6KjuFCurvVGu9+iY7iIkJo2u3kvy+i47iAMJqmjSffRQdSviiapj08/BEdStkK0DRtdP9edDDlKkJDXe6vVBMBg4a73E/R8ZQoDk3TGrfPoiMqTTE07XZ090l0TCUpjobgHiXxXsdoaCKQw3sloWlyeK9kNNTlPtd+uZOCJoP3SkXD3uur6OjOUgZa3b1XJhryXh/qu9zJRsNdrrYTQR6advsiOsRTlY92LzrEU1UM7fljOUf79KGcegqpGNrNo3Zz/rGefjzenV9LYRVEa2ij3+fak7ejh9tKomnjx+/WGQf69Q7VUVE0ZE8aJ9uTN59H+ECVRUMrgpfT7Mn3xzGtrLpop2VjvzYegt0rjIbtySsngvcv0c7VRkNdbvyKbOyXDxPmCFVHQ+vU+6KpoY+TMbdn1dFwl/tWJDX0fBvfr/poqMuNcrOxn+5G8cprgYYmgmzv9fRjclx1TdC0TO+FXFVSZXVBw6mh5C5HXFWt0bD3SliEI1eVVlmN0LD3imdjv/MDvji09KCLocW9V+SqRKOh/p76HRdD47wX66qEo4Gnbwmj9KvQwivhvKsSj4bm1vujufWVaJr2iC85vstoi2LQkCMapwZVEK2B5+/73DHp+mhHPlYmNPDlv+R+IgFa2ugmBVrynCQJGrCOnYQsaMj//Y75P3nQEAbv2mVCi3kvudC4FbJkaGxeQzq0yHtJiBZ4LynRqPeSE414L1nRkPca4TsQpEQDFk4OyIlGJDPapBy0cfVuQkH2JDvvVQytmneQIntyLlp17/u90bI6XC7a7aTKd2v/zMjG5qBV9x57/2LT09/UFGo22kN1n4x4Hvmhvb9P6XJZaK++aeGauhmFDerPQ2I2Nh2t4nfCoik7GgYSs7GpaKfeIHQtETcSDt5J2dgUtDNu67qSfKMVTrnHF3QT0caP1X9WIPSQ4UMbX2OX4RPQ6vGER2SPwxPx9ONxnIlWTVd1JNb5h92Hy8bG0arrqmLiFzXhoMd4Lx6t2q6KU2y9Fl2ZD70Xi1ZdV5Wgo6VoaDCCK+EMWr2eN01YZT+MfQB6JTxEq7SrSlBSAiFqdn/GDwFaxV1VgpJzI9FdkR8nE4JWw6fC0tI+49B7/cbN86XqripB6Rmtxjv/rsi6DPZxZSXrzn8iRagy85DjyVlPpAhWToq1+kuXdOVmjxsvdW2V+YnxUQnPtwlRwZx/HaXQ6iiFVkcptDpKodVRCq2OUmh1lEKroxRaHSUx2vt/Obdo1Rct+CkUGdHSH7WWAC3tAXkp0JJ/1kAOtMQfo5AFLeEnRORBA+Bn4r26UqAlP1guBxp+aOPorkhZ0AD4E39gVh606AfNJESLeS+p0HjvJRka672kQ4u8l3xoofeSEc33XnKiEe8lKxryXv9kRUMTQe1uqVNSUlJSUlJSUlJSUhKt/rqD/t+vp/xmCy7oi9UaAGO26q4WnavHdqZaEIcM4RHagb6AEP/DqinaGqNZBt1kGBhtjl7Q9zZsof/JgzEGt69R7YdlQjQTnxnUCj3810RoM/TXwGetB2e0rIu29A3Qhr1WbwhnBwgdobHnqAXbuu4hNGOm63vYQyyePrMsRLHsQg/MITprFK0NV/oCbsAAfWbvINzq60q30hbtSLSv9eAA4FOFGyQaPnSos2gbDILO4gAuDTDEG104FBl7jlrQNs0O7mu6624Q2hZxtmlfi6H1Q7QeCNB2YqPPVNDXDA92FyuEBpqDNbQBg9Y7QvPqheagMD2EZmGkHos2hIeOZTTBAhFPObRlpdG6/rxm9CDsQtLXumSE9PvaGgb90dyRPwM0nBA0ItHhZ2ngTMn/BhhsnaYzBN5s6w6B5aCmuXN26BP0sedu3cEUmOgjG1E5TYy2cbazKg+QJ2tY7TntHA2DeVw+7TY90SEoKb1WHX22RYOrPc0vWjMtfIMKVyKO3u8mKb4yPU2B9YZiRtPo8JzKQNOj6vQSqnu1LojGVG2XUN05xy8bjVREskodI7fwBTS/GFqHVNQ+v6JTtRsS7WjHcP23wxISOh1xvYxXkwQyKLHGiqGV2XympEavxBpPVAxtOliSDUvdb5rTmeM4eKCbOnO8ZHOcmYl3W7gAGHZ7sSfFDwudjhg6+pxW4OCitOsOXVJqHRQCFq4Uw1sDtKhtondkAjT1xQGVo/nqqefioW51+iDLoznMiEIdvp+mtHAu0p+yPGBuSOrywI1ApFFv+FEJo+zYYnSxZ+CXK3o4C9j4nTltR6U6wFuFb05u2hwaH5geoq16ZINF0WYzP7Itz4HZlvwmgBOBnPohGiRI0KRo3GTEz0ynziAsWhvy6gRo4XvGaKCwB7Hy0wQ0M1YGuiEa1ZCiZejU08agWX5VW8eNomBDG8bQUEzzzdZ1F36TG8TRDlFDWG2CmbTDo3m5aNvz0WjTWZLNfT96Fq1tMGhrNAoYZlCLx+xq+BET0eGS9tvOPjgWg4ZGmghtq3v78M1y4NEWf+rygUGj58pgNk8ZNAcPmSFafGzv4o1d8pKb12z2DW0WfQbNNcIycDmM9oYtOoiRM906H20ThedH0QzRNnQY99GO1yqL4CzH0AbBV0S09Ev5aCuTwbfZA7v+DpuS0Fbs2SebhwFaMDlQtITU8TYFjY5MgX1zObQgfjv4GiO04Hj9ktBIPYctFY8WZLEoWkKCNQj6NWiBu7sWGqdctKnnuFizvWxobqy8PGjbePlqo633kebZaJ2jr6LaaPH5MQONvtnonuf1NploQWVi0fbF0WZM2NmDf2Bwg1JXR1tw33BBtH42GnVgwUX9NX7TFYDW5ijQyG4VQJvT18zXwqHR6ru0s9EDuALQ6IVd6NpNs2nrbpccLQONmijdMEzdX2Ado/k3Q0HH6w381eVQABr1uIy8bLQdjCsBzYuXwSb1+mjxZWO0Xkue1w6x8klo8cUp2fn6aEfnIQetGZVMG0ZAfGInZl8AGrDa6zCIhT7NQQNN/7y5JtinooHmIqiy5W81uINStB2LFtwKQLrn/ES0I013dq9nNwvmWky7Z5uFihWvU0lJSUlJSUlJSUlJSUlJSak0/Q+B+8QxnCecJAAAAABJRU5ErkJggg==;" parent="1" vertex="1">
          <mxGeometry x="391.25" y="378.5" width="60" height="63.57" as="geometry" />
        </mxCell>
        <mxCell id="-Z6yPIl1t9Wa27zDCka9-30" value="" style="endArrow=classic;html=1;rounded=0;entryX=0;entryY=0.5;entryDx=0;entryDy=0;exitX=1;exitY=0.75;exitDx=0;exitDy=0;" parent="1" source="-Z6yPIl1t9Wa27zDCka9-3" edge="1">
          <mxGeometry width="50" height="50" relative="1" as="geometry">
            <mxPoint x="160" y="200" as="sourcePoint" />
            <mxPoint x="260" y="260.75" as="targetPoint" />
          </mxGeometry>
        </mxCell>
        <mxCell id="-Z6yPIl1t9Wa27zDCka9-36" value="" style="endArrow=classic;html=1;rounded=0;exitX=1;exitY=0.5;exitDx=0;exitDy=0;entryX=0.004;entryY=0.526;entryDx=0;entryDy=0;entryPerimeter=0;" parent="1" target="-Z6yPIl1t9Wa27zDCka9-32" edge="1">
          <mxGeometry width="50" height="50" relative="1" as="geometry">
            <mxPoint x="397.5" y="271.5" as="sourcePoint" />
            <mxPoint x="466.5" y="271.5" as="targetPoint" />
            <Array as="points">
              <mxPoint x="437.5" y="271.5" />
            </Array>
          </mxGeometry>
        </mxCell>
        <mxCell id="tnme6EEerUoHow1X7hHK-2" value="" style="strokeColor=#dddddd;shadow=1;strokeWidth=1;rounded=1;absoluteArcSize=1;arcSize=2;" vertex="1" parent="1">
          <mxGeometry x="750" width="130" height="60" as="geometry" />
        </mxCell>
        <mxCell id="tnme6EEerUoHow1X7hHK-3" value="BigQuery" style="editableCssRules=.*;html=1;fontColor=#999999;shape=image;verticalLabelPosition=middle;verticalAlign=middle;labelPosition=right;align=left;spacingLeft=20;part=1;points=[];imageAspect=0;image=data:image/svg+xml,PHN2ZyB4bWxucz0iaHR0cDovL3d3dy53My5vcmcvMjAwMC9zdmciIHhtbG5zOnY9Imh0dHBzOi8vdmVjdGEuaW8vbmFubyIgd2lkdGg9IjIwLjAwMTA0NTIyNzA1MDc4IiBoZWlnaHQ9IjIwLjAwMTA0NTIyNzA1MDc4IiBmaWxsLXJ1bGU9ImV2ZW5vZGQiIHZpZXdCb3g9IjAgMCAyMC4wMDEwNDUyMjcwNTA3OCAyMC4wMDEwNDUyMjcwNTA3OCI+JiN4YTsJPHN0eWxlIHR5cGU9InRleHQvY3NzIj4mI3hhOwkuc3Qwe2ZpbGw6I2FlY2JmYTt9JiN4YTsJLnN0MXtmaWxsOiM2NjlkZjY7fSYjeGE7CS5zdDJ7ZmlsbDojNDI4NWY0O30mI3hhOwk8L3N0eWxlPiYjeGE7CTxwYXRoIGNsYXNzPSJzdDAiIGQ9Ik00LjczIDguODN2Mi42M2E0LjkxIDQuOTEgMCAwIDAgMS43MSAxLjc0VjguODN6Ii8+JiN4YTsJPHBhdGggY2xhc3M9InN0MSIgZD0iTTcuODkgNi40MXY3LjUzQTcuNjIgNy42MiAwIDAgMCA5IDE0YTggOCAwIDAgMCAxIDBWNi40MXoiLz4mI3hhOwk8cGF0aCBjbGFzcz0ic3QwIiBkPSJNMTEuNjQgOS44NnYzLjI5YTUgNSAwIDAgMCAxLjctMS44MlY5Ljg2eiIvPiYjeGE7CTxwYXRoIGNsYXNzPSJzdDIiIGQ9Ik0xNS43NCAxNC4zMmwtMS40MiAxLjQyYS40Mi40MiAwIDAgMCAwIC42bDMuNTQgMy41NGEuNDIuNDIgMCAwIDAgLjU5IDBsMS40My0xLjQzYS40Mi40MiAwIDAgMCAwLS41OWwtMy41NC0zLjU0YS40Mi40MiAwIDAgMC0uNiAwIi8+JiN4YTsJPHBhdGggY2xhc3M9InN0MSIgZD0iTTkgMGE5IDkgMCAxIDAgMCAxOEE5IDkgMCAxIDAgOSAwbTAgMTUuNjlhNi42OCA2LjY4IDAgMCAxIC4wMDctMTMuMzYgNi42OCA2LjY4IDAgMCAxIDQuNzI3IDExLjQwM0E2LjY4IDYuNjggMCAwIDEgOSAxNS42OSIvPiYjeGE7PC9zdmc+;" vertex="1" parent="tnme6EEerUoHow1X7hHK-2">
          <mxGeometry width="30" height="30" relative="1" as="geometry">
            <mxPoint x="15" y="15" as="offset" />
          </mxGeometry>
        </mxCell>
        <mxCell id="tnme6EEerUoHow1X7hHK-4" value="" style="endArrow=classic;html=1;rounded=0;exitX=1;exitY=0.5;exitDx=0;exitDy=0;entryX=0;entryY=0.5;entryDx=0;entryDy=0;" edge="1" parent="1" target="tnme6EEerUoHow1X7hHK-2">
          <mxGeometry width="50" height="50" relative="1" as="geometry">
            <mxPoint x="608.75" y="271.5" as="sourcePoint" />
            <mxPoint x="683.25" y="272" as="targetPoint" />
            <Array as="points">
              <mxPoint x="648.75" y="271.5" />
              <mxPoint x="649" y="30" />
            </Array>
          </mxGeometry>
        </mxCell>
        <mxCell id="tnme6EEerUoHow1X7hHK-6" value="" style="shape=image;verticalLabelPosition=bottom;labelBackgroundColor=default;verticalAlign=top;aspect=fixed;imageAspect=0;image=data:image/png,iVBORw0KGgoAAAANSUhEUgAAAXMAAACICAMAAAAiRvvOAAAAh1BMVEX///8AAAD/aUv/Z0jo6Oj/ZET/YkH/YD7Gxsb/XTrOzs7e3t76+vpRUVH/+fgrKyvy8vL/8vD/6eX/4Nv/c1j/2NH/xLr/inX/g2z/fGP/ppb/m4n/uKycnJz/lIC6uroNDQ1/f388PDz/z8dbW1uSkpJvb2+rq6seHh7/rJ9mZmZDQ0P/VzBQce0ZAAAObUlEQVR4nO1daWOqvBL2JQLiVhFFETdqW7uc///7riB7JskEB085l+dbbRzlMUxmZzDo0aNHjx49evTo0eO3YD7/29/gN8L1fH+9bIMa199tDSPY7NY98SW4/oY5tm07RrgmFu2Flm0yZjBmOqt9z3oG37CZkYCZ9sYjlOwdbdPIwewVpfAOw91mjCcwrdClkhyaJcYT1tmFSHansWQ1XgzT3pHogL1VlxxvdWrl1UG4jHHEGJbzuOb1mcULjnf6kuJrdxoBvxdj2Ib/kNhL4AC/ZXIXbYi+eWext0s7sLzlmRM0V73epsr4zWgp/nYe+zU7D9fIuLjZFNutYVdYb2jCLEO7evPYxibc5McpC4gvomPIt7kZeDcNPr+symyZ1lFf+c539UPZSg4HN8w+y/n/Nhi36b42t+kL86CiFExzp2k47o360ZlbKtkPbO0pL6FrcDN+WG6mLGuUWbYOQ5eKdroL+Mr/u7n/j20lEnQwHnHgF035RWOiz2+Ei83xMjjWDRm8CeNBxopdWJ3r+8cxg+jr/8eDXzRErXoe/JRzu2Si7DmzmtkoE2Z5hMxDtipWuOlrDtHXPzfk/IXo8xsB4twHXBmECePu6n5++taSlZJy/tf3+e/gvKQ9+H1+3+tSE2bOH525bilWeRb3MzyETnLuOXdeTJk+TyEzYfyAOzoLzovfM7yLNndEX7+TnLs5oTmddbulBKv805TgSRiPfdBM9gXQZA+hk5xnO6+43d2VhL7YcORiX3U/nyfduBvomSIra5vH0E3O17kfurrM53PXN+T83QzHL69Eu+urGI9Jd7Zf+12QfRSdS9RNzgebPApisyAwZUoiXWc5Qbi/eEtv7e+2iDfc32TlQS5mUKVEusq5V1LfUCQdZNC0bMdxbNtEvqECLb9Wjo5yLjRT2gJb0eWhu8r50lbzRAmbMHreVc4HO7Fx2AJIg+ed5Xz+1I1OmoLuLOfl9FzrYKTJ0F/E+WJyHWosn6tsckLQpoh+BefT4fjwMbtJ1YrK+86zKDePpFf7tzmfTkbv36+ZVL1MyPZZG/0PmTuUXPJf5Hw6PkWzl4pUPc4vBBsd41BZVAHFOxZ/kfMZL1Uz47d53DHabgyVkCLCSINuc+49bqOzwA+FeYs7CL3+BN3mPI/pPkK6uV/u4BrFdAGh158Al13+tZwvKaIu9mbu7oBa3Ozf1DVzHeecJgJgrtzBMhQE1MmqWnJ0nXOaCAAzlkmVC/Q/soxcjknHOSeKADArdjR9oOyC1utP0HnOBzQRgGSnD+Yhlz+y6QtDu885hWMUkx4kRvilZjc+5PUvhuPT9RDd8H64jibD4TR5mYzzm/y7+Fj+eDFFfCUazgcBTQQg7aNwjxVl5TR1h4bXD/76Xr6j63g4puB8MYrePqv//vk4TES8T1IAnJ8mABbyq7sQxXTt1MPfl26cpl7/6Q3gNcMr8BovQsr5MPrk/50seQfZgkwlKU6KCySIACRw0rzExcrvHLORO3SCWJVDj/ODRNL5CnwjSJ1JoQqqe1TJi6z8eZmdy428/ok+45qcf8tlRbywkebX+VToFpIIQIK8NS6tCmvk9b9rXt4dOpxHKmHfnLCT5td5U16miz5FGTNNUxy+zf2fZUJ6A69/IVPkEmhwflVL+6gLQ7ynAuBWqeMLFwEw7dUmDMNNYAtujGJjx6Q3yPUPX9TXAwLPOUpN1HW6LufQmVDDHLPRTSv07pbf3NsJwreFAl9aTN/rnwAdFDigOYcMTQC1M1BX4U0QF4uIADibcvG/+wWGtEpFiZc/2l4/FBhHAsv5UGAj1lFT6R+aXwdVC6CKADBON3ugWi8Z5DvdkpZpU8XyH5rzKdomqu5UwBWS4RXj0hZF4gJYPIHuCtLqdvNRCgoTTgpeGsg5nrvqRtfcDWqzJYE8AgCWYYF9As0DLLrnVAW8OG3XsYaKha15ziDMlhjSjS7wbdbQQdq0fGjY+PyMAch7RNwNh7IwzfcCLcIQZDa60OiDnKmm1aCR+BI+X2dv3wlmP4K7nJf3KOeVIKTmezFmSwxJQbpT1Szz9f5mpe+9eNYRtLpRYkgU0ZhdJ8NSlHW6GI6haAkvUMT5axTdA8M3TK6RWMOXbI/FLEU9FBnj86WOV6Xnn0KsXGo7d7+yrZs3asVd0huoA7pR6y1sjf2Ad2ljzl8P42ndpBiKbG/QrwF+otFgWgf2osWRrkrzlWfkUUPm7KHm6UbNWrBpLjiLGnMOixvCBiQfdRmQ5SxSiLsVy6fipeIK2UeFY4QGGF19Fywm5nwwAIM8YCaPlvO50FosGnfzBuqCXvDG0M9UQFtNaOWScw7fZZAzScu5pEq34ByZx9OeMQdetNCBJuccjqdAZBJzDp2H972cc44tzDBDzc+G/CGRZmmDc9DIgc5vYs6Fe7goq8V2kmpXWETAJYsNLnrOQd12ANY9S587maZYossydIcpAmbvTLy6Bc4h5cJlLgbkdouQQCsLKaoCYeXfScsxgjonJGH/FjiHkm/QGU7Ludg+z8vfvvB5U70IAJRIkFxKC5xDhzh0p9FyDs8pum/aVKHr5Kq1cqHQLpM4cy1wDt1pP8A6Ws5FZotRmCHItOl9ozONz8ZFUHK0wTkQO3sF1pFy7sr4TD1RDX2uFwEAgi2SI7SVWX+AK9o65xLVkufz8XZL8iZ8BAC4ElnYvw3OgZ/9BVBvlJwrMv9mkJCuVTdt4R0jwDqGjOMMbXAePZ9zlao2k1Jnvc5pC+0YAcr0F3Desm6ZK8lkLDZEtjpVdvjUKOASyapy/g3OMVagE/juUjqerg7sAJEFwLmsmPhJnLdrK+KGFjGbbbUaBLAtcwsg/SxL4z6J83Z9IvRwLnSQ6w5k9RxEz7M5B+yWVn1/ghZ0wU+0Un+4gJ5n63OgoKnVGBfXaLHSUtsS4Ir+H+f8jBMqkYl0Eag4X3PanB1pKK9MnhcDokfPVjzjhIpFQr4/9LNTcc4n5dhGJ7QiAyo1CpVwPZtzYHWLeSKob86+7IiajCxEBACyW/R8/zO/6FdzDpl/LBgcaUjHpEanemmiNjiHysigCjgazuFgoe0PQhrSMREAgPOzZHkLnAMR/E8ogk/DOWxyxwVwO5KudExqFCr8lCxvgXMggt9eTZHosLS/4luAwmREpEahrLtWbu7ML9LjPOIXQ+Z5y/Nb4oTcWjnfDAFEahQqjpUYLi1wDqQssDWihHOKksPP3RAodXVqFCrK1aq1OPOL9DgHFoNF5C3P47pHBfeP6xd1OzRYuqZTU3TmF2lxDtWRgQvBWmg9yGK47J4b8rYPb3VlBABsJRIrF3LOp4CDAKpziHOZ9wZAHtzKnkb3+FZ3FBsdbLI4C6styDmHdBscwAf0PlinLoZiikhmWteekK4PpWMEcS52Rfmln/wiDc7B4nf4F4dS1dhOlgR8cKuKVLvc4D9owDiK4mi400GkKYk5BykX/OARsFQ1H6cC5VzoInXvHh/a6irHSNDTA18NoIke4HwK0Si0RqDF9WEti+EpEu19xFCokj9zWT0SalSkRkWTD75H9esZv0PGPJJzbk7WdPIONz+KLFXwnngdT1OyJ6PDx9uLpPkck9u0CqUw/xKNEEFAlRoVcB6PPbuOx5Ph4nY941P0JmgPRXJ+EzebfbwfDtfTaHQ9CMWJ9YVgc7zM3t5mry+5+SM6V1GVcJV+LBd8OisOCscoEpKekiqfR4HmHAko5X+XiuvWhg3NwQA5J6fiucsfpSiDwjHSHjJWBTXnYj8HN6VB0JcjLVAswaoefze13ox1hWOkOa2jBmLOJSZ3hBIAqyZpHW6VrGN1h4ofjSuFYto/cn7QDbMxr4VpOT9LLG7cBDq44X+HPw/rpLs7hn5z6Z5QpEaxw89uLkjEvUjLuSyCghvsA3JejLEwbcdRGCTWtrZFlyHKhLGc+HGv+SfJ57giNfp5CIVnSDmXB1AihAR4vGIew3XCteuuj/KUkGnUE2zwA+YrYNbXsvI4WEUXgGy4Z4HYV+Gbfyg5Vwy8wQwNg6pLB25GRNbLr5gOzf5wpp7y2cR5tCYrUFK1u2C0S3I48fc3IefKGUOIvQF6VPljsfP9K2txZpYBWdeeNPRVeJ5epodUQ6LVtkuau4nqr9NxjgieqPcGaJ5nT38v4n1zcbmcZYiUwlrMetnxzEpQlbXRqilomablsvRUnH9jYoRT5d6AzPOs57lcNytKX5jmTrI91xsB62XlnU15UZfpyu/b/FI4PmWcQ7OFYPwgI4QLFemQnKznuTyZBW64ZXaoCMMKWC/zm3Ou7hmdSKZHFvbE9AfN+ctYFBer4TXSSGwq5opCkjJLsTwKATLYmbNBVAStodPUKvG7R+/zGyYReBmfUdnmra8Rcv6RBvhuvH9L9vubeMI/jCH8LW/4iU7gEJSM8zIxfE8us1fIrv31lmO9/LyWTLQqc5FiOnqvHlOv0aHmZHAKnZeScF65yafTyfUQzSrUn38+DqehHt+ptFNN1Mv3++E0ForKDsxSTf6Sc+gtptE+zrNeEFzYLTrXNByPRqPxBOZjOqoCuJnjJYITcTpJZet8HxiLWNRY9fiKBNnOs7LWNm6SiGXu9QbG120YtkqP3rzvq4VHFXUJuTVu36c9e0FVm5tWqD/HrHaaMsN354OSH+pQPoe7e3BL7G7DY32L2sdmA1ire53ZLNiy/BXSx813EWGhvplpVhl3ts035KWq18tFv83mi/5DcIVdh7bxGDeXFRxF0Gj//1chCGpZBA+19S0gqUH+5NYuYg+Qblo7Emb2XFKjyWzRfxB+PbHZyFiB4YZV4daq+fj/fwrVJL5pY/z8RsJN69grlgx+4Fi3w5Qx07aO1GZFLDyZ2c0aWp7/KObe1yYwjCD027j3vf1uE375vSbnMe9v/B49evTo0aNHjx49no//AR5YBKA3LMvYAAAAAElFTkSuQmCC;" vertex="1" parent="1">
          <mxGeometry x="760.44" y="150" width="109.12" height="40" as="geometry" />
        </mxCell>
        <mxCell id="tnme6EEerUoHow1X7hHK-7" value="" style="strokeColor=#dddddd;shadow=1;strokeWidth=1;rounded=1;absoluteArcSize=1;arcSize=2;" vertex="1" parent="1">
          <mxGeometry x="750" y="280" width="130" height="60" as="geometry" />
        </mxCell>
        <mxCell id="tnme6EEerUoHow1X7hHK-8" value="BigQuery" style="editableCssRules=.*;html=1;fontColor=#999999;shape=image;verticalLabelPosition=middle;verticalAlign=middle;labelPosition=right;align=left;spacingLeft=20;part=1;points=[];imageAspect=0;image=data:image/svg+xml,PHN2ZyB4bWxucz0iaHR0cDovL3d3dy53My5vcmcvMjAwMC9zdmciIHhtbG5zOnY9Imh0dHBzOi8vdmVjdGEuaW8vbmFubyIgd2lkdGg9IjIwLjAwMTA0NTIyNzA1MDc4IiBoZWlnaHQ9IjIwLjAwMTA0NTIyNzA1MDc4IiBmaWxsLXJ1bGU9ImV2ZW5vZGQiIHZpZXdCb3g9IjAgMCAyMC4wMDEwNDUyMjcwNTA3OCAyMC4wMDEwNDUyMjcwNTA3OCI+JiN4YTsJPHN0eWxlIHR5cGU9InRleHQvY3NzIj4mI3hhOwkuc3Qwe2ZpbGw6I2FlY2JmYTt9JiN4YTsJLnN0MXtmaWxsOiM2NjlkZjY7fSYjeGE7CS5zdDJ7ZmlsbDojNDI4NWY0O30mI3hhOwk8L3N0eWxlPiYjeGE7CTxwYXRoIGNsYXNzPSJzdDAiIGQ9Ik00LjczIDguODN2Mi42M2E0LjkxIDQuOTEgMCAwIDAgMS43MSAxLjc0VjguODN6Ii8+JiN4YTsJPHBhdGggY2xhc3M9InN0MSIgZD0iTTcuODkgNi40MXY3LjUzQTcuNjIgNy42MiAwIDAgMCA5IDE0YTggOCAwIDAgMCAxIDBWNi40MXoiLz4mI3hhOwk8cGF0aCBjbGFzcz0ic3QwIiBkPSJNMTEuNjQgOS44NnYzLjI5YTUgNSAwIDAgMCAxLjctMS44MlY5Ljg2eiIvPiYjeGE7CTxwYXRoIGNsYXNzPSJzdDIiIGQ9Ik0xNS43NCAxNC4zMmwtMS40MiAxLjQyYS40Mi40MiAwIDAgMCAwIC42bDMuNTQgMy41NGEuNDIuNDIgMCAwIDAgLjU5IDBsMS40My0xLjQzYS40Mi40MiAwIDAgMCAwLS41OWwtMy41NC0zLjU0YS40Mi40MiAwIDAgMC0uNiAwIi8+JiN4YTsJPHBhdGggY2xhc3M9InN0MSIgZD0iTTkgMGE5IDkgMCAxIDAgMCAxOEE5IDkgMCAxIDAgOSAwbTAgMTUuNjlhNi42OCA2LjY4IDAgMCAxIC4wMDctMTMuMzYgNi42OCA2LjY4IDAgMCAxIDQuNzI3IDExLjQwM0E2LjY4IDYuNjggMCAwIDEgOSAxNS42OSIvPiYjeGE7PC9zdmc+;" vertex="1" parent="tnme6EEerUoHow1X7hHK-7">
          <mxGeometry width="30" height="30" relative="1" as="geometry">
            <mxPoint x="15" y="15" as="offset" />
          </mxGeometry>
        </mxCell>
        <mxCell id="tnme6EEerUoHow1X7hHK-9" value="" style="endArrow=classic;html=1;rounded=0;exitX=0.5;exitY=1;exitDx=0;exitDy=0;entryX=0.5;entryY=0;entryDx=0;entryDy=0;" edge="1" parent="1" source="tnme6EEerUoHow1X7hHK-2" target="tnme6EEerUoHow1X7hHK-6">
          <mxGeometry width="50" height="50" relative="1" as="geometry">
            <mxPoint x="930" y="130" as="sourcePoint" />
            <mxPoint x="980" y="80" as="targetPoint" />
          </mxGeometry>
        </mxCell>
        <mxCell id="tnme6EEerUoHow1X7hHK-10" value="" style="endArrow=classic;html=1;rounded=0;exitX=0.5;exitY=1;exitDx=0;exitDy=0;entryX=0.5;entryY=0;entryDx=0;entryDy=0;" edge="1" parent="1" target="tnme6EEerUoHow1X7hHK-7">
          <mxGeometry width="50" height="50" relative="1" as="geometry">
            <mxPoint x="814.5" y="190" as="sourcePoint" />
            <mxPoint x="814.5" y="280" as="targetPoint" />
          </mxGeometry>
        </mxCell>
        <mxCell id="tnme6EEerUoHow1X7hHK-11" value="" style="endArrow=classic;html=1;rounded=0;exitX=1;exitY=0.5;exitDx=0;exitDy=0;" edge="1" parent="1" source="tnme6EEerUoHow1X7hHK-7">
          <mxGeometry width="50" height="50" relative="1" as="geometry">
            <mxPoint x="1080" y="198.5" as="sourcePoint" />
            <mxPoint x="1000" y="310" as="targetPoint" />
          </mxGeometry>
        </mxCell>
        <mxCell id="tnme6EEerUoHow1X7hHK-12" value="BI tool" style="rounded=0;whiteSpace=wrap;html=1;" vertex="1" parent="1">
          <mxGeometry x="990" y="280" width="120" height="60" as="geometry" />
        </mxCell>
        <mxCell id="tnme6EEerUoHow1X7hHK-13" value="" style="shape=image;verticalLabelPosition=bottom;labelBackgroundColor=default;verticalAlign=top;aspect=fixed;imageAspect=0;image=data:image/png,iVBORw0KGgoAAAANSUhEUgAAASsAAACoCAMAAACPKThEAAABHVBMVEX///8fGhcAAAD//v////0eGRb8//8fGRn///whHBn0yav//vzfZgDmdBQgGhf///rldRTpcxIhGRfpcw3efjf/8eXncRepqKf///YJAADlagDd3d3kdRPpoG//+fH39/cVEAzoaQDdaAAPCQQ8OznYYADpbwBXVlTx8O65trTk5OTBwL/T09PkoXn/7Nj/9uX73sfabRviYADacio0MC7nnGWBfXpsbGthYF7bg0OOjYvIyMh4eHbxv5rorYD00bD53bbfj1P+58fuwJr0pmXVcyLsr4ztwKHto3X1z7XdlmfVbx3xvpDyn1nbjVjrkEzgh0DbeTv22Meinp09OkEoJibxr3xJSETshznfhE3nsof/89vSdS7ef0bnwZ8Tj+GzAAAXw0lEQVR4nO1cC3vayJIVrVYjIYGQZWQQMkjiaUx4+f1eJzcPJ7O+SbyObzKZ/f8/Y6uqhQ12nPXdD8fZsc6MEwcEqI/qcaqqhaKkSJEiRYoUKVKkSJEiRYoUKVKkSJEiRYoUKVKkSJHiN4aqcPyLJz8p7odQVWEPj14cn9QUXeFcFU99Rr8vbFsV/7Fh+VHrdCBsW5j6U5/R7wsu+Mtxu5j32vFeCf5hpo54P9ThaRQAV55rvQOzUlIfvBemctIK8o7rOp7TOkEzSw3rPvDyqhU5QT7Ie/lobygUe5YriPX4V2prBL225zh5+D/vBM7kjSLmuBICJYUJ1qak9qbw0djNF71isejmnfx4JOZsSCUIYesipUoRJ5ZTzOcDx/Py+Xx0WrvFFdiUgloiNSvAKws90PUd4MrJW0dznJBRgQgTQhdp0OKrVuA6jvePGCzL8dqvB7PPCoXbw9HR1tbqq/pTneFvApXz8rJfdD339eDUyuc9J++/L0M013XSpMDT260NaxLF1uRjCbPiM/VEXLbJh4EHkcpZLo9aThBARrROOBeA8nCUW/0+tiLfcZzAcydvRJmr5lOf9dNAJRkwsjxUVi8U/mICTEF4fz1UyuVBbms5jq2ImMp7kCj985r+bDsRKoZs5chCaTV5q4gheKPnFIvWl1dbH1uTqA1PoM3lXUyUXvSuLJ5vE4IjV8e+h453BsSdWc4YLKsI5gQPAklAEViVl3eDoue2zoRq6upTn/QTgZtCKZ+3PSfwg4FqCnvL8oquk28Xi2BOATqkBy5YDAJQXtb7mnie0UpF6QSSSQyWXUx+/6pxYYvhB/C78djz2qjhwagiCwIV2pfjbJSEqj7D1ims2rQVgfFnEIMHev6pDWWMov8RY7sBtYPj+BN/vPzlPy2I/GBqH0bPjiUJG4hCVQB/noEEhdB+DI9xRdTOUb4XnXZkWZ9W/3hZHm1EqObd8QlZ1TOEwGXroMlLJ/8EcgJ3AqFdx877aNxu+1a8vJob1UC0jz5EgVd0nDgnnmvtzHUI0rXBq9WNOIDIFLjxZ8WEQG+K8rfW8tarUY2rwlbUwSffCSLPsY6A3vIzJAtsSvDy6Oh0HPttF/IdpMHlIYR64MoW9dGwBs6IhaAofY0iLBLjY4hmqv6MuOI6RHQdpXrp7Hg5nkQuSigQDMUgOi2b6JaU6ARUOBDQVDE8nVC3dPKlDILdfkbhSnBdBxaweNmwrLZDmgDYAoHQnhzP2YzJORxa27LQqJz4dPhU5/xUMFWQ6eWTrbHlu67rICDhOU4Uj/eO5/swOraMFSgPIUN61t6fz66wAakpSu9bPqjNIpZ3KKMcvzXeevWyNj97AKZsqBNbbagO89GnP8WzU+soyz9aRBS5luv61vLqWQmlw3yD2MY68VUL+ISC+ftIeX5qAZTnt4mHTJFBxR8+fhuVhKKSrpobNiNVJy0fD3TGZ0J/fhMv27ZPI6yIobxzgn+8HUAFCJpUFdRLn5tzqeJk7IPpeW6cg6eeUQJMwHltLyKjyufd4PSsBBxx24Qf7CTPccVLn3xg1M1bf0DgeoZTeyDlywRzH4UrP/7+bjS0MZBD0czndWZZX52g9Tn+sW5zodtPdc5PBahhXsZRPig6Mr5Debz3ZmDjVEuZL4uxUzNuOxDbovEI4/6zy4OqLfirOPK9Io64wGyKbtuKt3J/ljFczcersoA04DhFzz8ti/IzHAxCerNzr+N2McDCJgicItiYb41zpqnM2RWHsnD43cFBdBCfwcsWGt0hk/zoQYWkCf83PgoO7/ZX9rf3V6r1BfcgcVOCygfHY8ulmYMTOF7gWME3EA7mNF5xOGcdLFBX3rYcmhZ+LQvVXtiJQOIV4vP7d6s3eHd8dDawcReAzVVuPmwAiYHDXNsNmcTmfvcRNKCwB0d7cdQGmkA9Ra33A53Xq1MvgzAOlKLkEsM9H5t8+cmJslCuOBe5lj8Dy7fi8WmuBKWqbYIwflAiAes7uGIVzchkjIyWCZmxvqhTnPkQoKV0sgVxyymCbs+VBe/tHt48j/4HzqAL+8QKitiHWK7pi9tBClzpes7yqBq9QdBu/ZXDuAj65GEfVt9nDQOZMrQMkAVsrSzsJKfgOs65yqMvry1/fPwnV+oXDfiYxHBMVYWrW0bCFFCuuC2rODlaZGxXBddzcX4OpGOiyQtTCDSsB7yJ0t1lmlFYQhQyCENbPFlQ1IAAhbMqHW29BHM/+C+msWv7xS6yiRNWVPSjVhukWNDeGCywIAS75jnLmQHR5UNybr2rCVV/QHBX1XqHgT1JrpaIq8KSxg4WPGQCRQrRB4c4yFvvkDUKWqU/FViQ8cpvv50Nyxji+SptNnImXxanRTlmPOAKty95OKotekHedVH0OW3rCK7VtKWo4/xkunbQwxxHJ1LacH7IwPmMQqGghYWMhr64tGSERm/+szh/0J6xey+OilYOhY0OAlRZu2QafMZl9/pFa2vKUcv6hB33sjLYaMNaHHc8UOBqL2SzGmgCFbhycVscFA9RBGlGbpLDIdvGwIQ8YhI4x16sfJXJqWJVVV2myXWGAR1DerhpsBCj1tJSyHbmk+FDuXoQevgxGS1sSnWCuYVdKGcWjgbjva2TwRerjWuyVsviEbhygi3QDqd7H2LZonWc+A21/BHY/jftm5fh2BdSKO1WqV81NM3Q4CKvdJX6+hUaWaESrj3mjtYDZmBgbHSmN+McMLYjRjFO590oao3/5XluPvDaMW4iFYuYTcBqrrnyPw65rdZqg+MPvoxcLog5wSUgJfJpoIfoCWGfdq7imR4gOdq1z9k7LKOxTu9GJf4bp/NQ41sDUwb7ZTuJ6u2HYXazPlz2PS8Abd9uoxqlDUfvIS8u5KrNcuUu4+Y3DJwnYxnj/WAwIxnMqcLnoPhoXXbZxhC2z/C0DfABeVz9irF99d7A/pNk8fAVrWAyyWTwM3EJVSPMZJd65XN5lR3a8YHT+qK/MRQ//cwHY4arInKFCRcqzm8WNSCdePT5/ZZEDnKisJMXfd7aQom/df4Z/91pLKEEZWu0WG7y/ubBnU/qVte2tw+399d69+/drPfW97cPD7dXqt17DpBQkusDXK3TZ/Y2G4VCFhLvl8gFloI8cOWC8MH/4Hor5oK5yrufSpRqwL1G4Ou4H87KlVq+G/mxH+2VlWutVX43iX0/ciPIMqpSb4akqSodBVMAHqDOXkj034PtS6x9KhX4o3lxlwl8WXW/eX3M5X71zjHdlZ2rJmBzB1y/0yDRy/qQoZVes2IUNDTsXMuC80KbKuKKwAfbr4fgD4vhSp2zK0iwoE6V4TJm3GJ+cqSfYu+6WHTG6I7JR9a+w0XDOclpGR4yr0JNXuSLH3+Gsg4khNkM6QrIXaxxcburxJV+B45BvYHHAAnssKtc96ZULAwajDVCAMao+iamQXivHlSJ4PNZAHI1fPlqa7k1aWOowiobasIXuL99EV2sH3EF+qW218atS3nrSDmxSEN41tsbWxnFjpt3is4kRxsxDinOFu6T6tUOa8BSllBXZCBhGprGmvPSS+keMka1ER1RoLA9V1JWN0nCwU+G7cPxkHnhoLAJhHanVO1Txi4PTo6/ji2fRq2u/9eAegCPwxVchIQr3DchhhttDy3LP4X8l1yeYz8PYaHYBlvDR1ZgGfgfcLB29yPWQqbhWtCukAkqriuXcz7Wb2L40WThLf/GknLt+vJUjQamWlS5GbwiVZlOGrtgYrtEVRYo1CHplDmk7tro1dbGBNTi+PxPoZrikbgSOBsZbLi0XcDKKcq7GKuFwA1KU91e2/OLDoRQfwtv2VN41wixwYBylN1pL1wwLUNrySILcrVwZGOzq1w72HqlQQ+TDDCQFLKwEKMRob7ZkM9rmlaAEE6SAQ5k24pyQxV2kEjGoEowSyd/fDkalYWNG0MehSuQbSZWiHnaEdcaCXU0hhgJDjnJTXM6bqfzcDNPDstUeI8LSOBE1l3L2odKZIkW06DOVphU1hl2lbwbh4VrWHHDW8j+V0WGP4hGRvf6XdDLiaxs2MUHkFNwO2WHLSVUyS6aSjvZVPoLt7qbeA/AQpoNCVcOadHlEteppzE89z3axot5rvbVp4AVvVBoJ4oqjiyQeQ4U8SUyDZPXOxW0BFxvOEuWiu6JFTWspXG1v76+vn/FGuitwOz1gX0GxgKmZlRYc3v94GBlx2DSyDSwGyS0y9BzC4UQkmSFGXWubDMKXmxtm2VJZ+2j3pumAhNqbKw0bBvZA6taSBNrhisv+lRS8S4fUVu1HKqk259q4HbfLDQxB6jEBg7or9M2VYzt1bJKe8ZVpReGhjQF48YNoWatAg3YpQnZdlXGOn5wxTSKSGHTpATX3STJASa5eyClF+9uMwxs2Nghw1qXIj28XOsjYOk7FXJmbRefASPd/gX7Zuft6k/QmrWXub8ix/MdEA3WC8jIymDsFwMUprjX0DTFYEyZ0YV/XyvtdZb4jQGWNSVLrTcbGa2wlK1c9m80eR2bEsgqk4L1kF6KBjmz3BViRzPItUh4wlUIk+QJhnwVSq4oHeJRv2DAnGhR4srxvp5//boXWK6L+3HArCDPYaQ8j/LYkfWPFQiaujiZAFee0/6O4U2eookxR0YsNJApWSsyAlcgs89UeWZHRnIMzOiBFNDDsD93YqhD4M0aV/iyQ7Kiyi49g3eXdC8lVxT5NLb/SzZ4zHLlRQQckVAwd60XAszOVl5ZIICDfHuvhvHSXvVplOKvlpWZQeYK06RpQYRO1g0rWlrSMuFmb95DqtKSGh10uU6lgCuu3KqKeqEm5RjYktoJMTlKG6Ov+qhWtIQrsLdG59dsXJ/jCpRBENBNiyCewMf2SuCBUDEPPvhePvDceIQ7eEobLnEVn+Fg48b0LxI3hD8bzTqe/QrLYpf0ro7YBX7AlLJdMivQZRibbznRTkUW5H2KaMgMttYxgGMhwApTrjLGD4TKo2DOB3Hm5uC9PlCfBy7uXqJWjKmsgrGBF8ZvgCr9zApQULgQ99W5VgdYlsyGUlojJZC7MqAX52ngiXjVWA8ZNjAUXd4pEdcoRlFQq6KYhdi1ft0uXGHS/bLw/loBm0G/YBR/HdslWcW2Q98MAWZjfXw57VYpZ3FAxfVfNgjjY9yG4uTjF3fi6do0wBcoDHdJJ91WXKqqIw+kCHrgXo0k5d9Gn2oe4qqfqE3p2cjVNivIaJ+V5VBH/wX7Fma5Coo4/S5C1G771odvpWRcJHRe+oj9WMcHuaXU/hk5OClHh5x/L1RTCVlURsNqqWabNxmoN8GFiKtGT+mSOvqBm4IxFUiFHWAvkbhKbA8/dbdCUiG8kFU7JsJfyxVkOt+PLMuKP3w9GnAluVRCt8VxRA2O+C0HxeBCPHOi5dqdNyOyZJ2Cvd0Lyvthc9760K7IheCZOvBJrZVG786bUQKAnFrFN0KqsLVOpww/zZB8sNG7kBX3LwlZs1w5463Vd6urx0cng5qi6teFARQ9oxa2zTz/vCa+YYFDN8HQy+dvXJ+24IxwEx2FuLqa/0TkaruCHlTZQZMp4FLDux2tPqOSBqucHclV8kbY4L9E6Qsf0lU7kD/AD0Otqy6k+fkTTLnC4N5eLulQHgtaD067k44xbhD42s47gReNS/ZX6qQF8Ugot7lSp6vAMUVdZjJQDLftitcb1ElAP12XXP3Arg4YFYhXJvZdKVztJKc8FR0GGmZVcgUh69HF6Kxub1PtTI9S9ZEYFg5rxNsJsWmdlXBPhZNv/yW/NoJGrf2ZrvC+jC1hkyudMFPIZrKV3u129wpboiDTo3GMJuOVnHQkJ0UFdaFgZKjpIj1u2knkU2s0SJyusWyBSqu76WHBmHKVT2YTP1J18JAYtCBJ5h3raNRy8Z69yRvJJKyqv8tmelFrzECuwL9QFWELAGTRrHsIpWdoaAkVCGloIZjJwGZmjtGxWb3PQMdS06V3J/6vEdlZKfw7UJ6D2Hr8kHXDVfFerrCxj/fmQU3of/kD5/l5B5s19PrqDqvIc5bYTvL7hVKFWg25ajS7c3aF8/yCXDsHn03az/0Zh+Zc1CHVLYFdYV/vQNaG7KYIukDJAFyRGulmKXjdjKAfCw+yK5zansXYd/dPT30UV+2vNepcAVPspgpWyE7IrhpVCjjAlWHIQDOlq9uhpWfIrFCeG1Rwb3bxTpok8de3+0qzAZqfZPsaiXQtm8Q0jsFeciU/dl2qiwzbfVzdMMNV8T6uVNxZVPreBtXg/GvDC9AX32CXzzxkFWyAa6FRlVbR38QYBS64K5UpcJXJGmwXa2e5kPVNJvdohVVFjvelQmo0q1iCE6PVTlZRL5eWlsCuehjeqCJqJlFRoGSQXCWWJvv9P1S0i+cq/ilXim6riv3Cx2lEse2BWbmtAY3odypYG0O50tAuet1uf7sSajJG9aW8Iq60S3ZJ2yLrvfUOCymYG+BcdL/DdCBjNCr7fXSi7gHYalPphrjjhvpX+2hXRmN3apkqN0iuZ6d7S6BGlw1mdncsuXCuZB6kufM9B3Gc3eTxW0iwA+F/NWnzB7gZVMfZJUxD7BJ+IAprhSWDHcIbkbaWQwl8utnpNBlrFDC7UfP3pvOFRSROgdhmZ/cqZEwDJQupDmXTZp2bnQrEN3zP6el0Q42ebE4D1DoqUmwpInu09efJuCLU9tp5qgrlKAwHq0LpVOTYAenQpjOIQuWqDu9L7bjpUAKUUqMBBQlFdS0zkw3UHTZtGBhhCMdoVHqv0aPYbgHLKxSmXT8CFE/IVWN3ugjsxxuksuihJ+fK/mZBxUhUuWPcLYdnlFS12SU5m5D/qGz24G3UzWuuMnLORT9ymDUzdFW7VwlZBg0PaeSwkhQAaKDdBliRVoCkN6UAdAlydW1pOPqmEtxIGH1irjh+GYJDXEE2rIlkC9tFQhbNqiQz7IpcQ1bF2bCCXGGLKvnJZpg2r4RARGA3lVqocjwIceeQBoZAKq+iFWmZOckgRdkM433ZPkxC1pNzVT71SVo4TvxWsXVV7gPZZyENfclgskYWxFY9OXtZH++wRoZGrUQVRqXDW21SRd1n05qbCAtZFfvMENFRQa0z/K3Aetctou1k4LU+o9vkEKxghNm75dKCcMNV8edcCZNGXUhVe1xSdZX2zMCLVzRga4lOXoO43OnTHh9lGnB2zfUrxjAKoU6A3w5RG9yqIhXQ/ozCGRxTYWyn3pXTRDSmfflb41ppmp1kF31v5m1wH5NE57G+Q43bsOhcy7cAk43B/ebLVTF47WKXz4vOTdo7lKy0ezE9zUoTd7ck6pu8k7KX2d/v0C4Zo7mzfp+2rl50NpGfbHN3BSyjviIB6+5f0G9r12W6uSafu5gjpZe8YuXi7g6bxYAM5POLY8SXNxCG7uMKpGf5n1YAqdCLc7efrB6sr62tH8ydJBU71/KwW+33+/+Ld8hj7reKnzYSfsE9lbg7VtimyXVdt8sqv3eHMwTzwQf6Min/dem+g2ZBcsKgnTP/99JDvef3nx75WLSp+DUP1ze0qPr9m7rKIhfR3XvR1t0nsekwr2rqRkhcYfb629yejTtEp1DuH9+qkAcj2g9y1wV/hC6JiQxDl/qbcIXTNjPZUayr/Cf2y89iajS7r0s/qq9vOnUSPeJKC/9GXNHWl2nb6PaiUH2bYG66qdj24JNbxC6ftao/JP4cMAOK38bVc7mFFktmk5fxGzvtz3sRNgQ9Jz4RD7nF5QK0YaYw7ZE/A+BYwv7vL6/OjrbGkethiYP1zUN8apvRNthHb4L/PgD1xVcnoFN92WRw2q3RrRvX78HhJm2v/jU7DX4DcFLnq0FAWsEB1e60vuDOvv/1lWrybQDP51s3uI7i9F3kyak0UBafD/GbNp76xH5HgKLQxTvfoZu+QLRbe0P72X2PxgOB82f+Tt4O5OWjyerQXtxt6X8zqHg36otWLHF+VrMXeFv63w4gGgYjic81zv8+Gnzh4NxUpZrCe5vx6xUV5Vllt38H3FbN5DviOVQ7itxEk3L1I+COFT67fyVFihQpUqRIkSJFihQpUqRIkSJFihQpUqRIkSJFihQpUqRIkSJFihQpUqRIkSJFihQpUqRIkSJFihQpUqRIkeL/Ff4H/BZHPodcHtYAAAAASUVORK5CYII=;direction=east;" vertex="1" parent="1">
          <mxGeometry x="150" y="158.5" width="71.19" height="40" as="geometry" />
        </mxCell>
        <mxCell id="tnme6EEerUoHow1X7hHK-14" value="" style="shape=image;verticalLabelPosition=bottom;labelBackgroundColor=default;verticalAlign=top;aspect=fixed;imageAspect=0;image=data:image/png,iVBORw0KGgoAAAANSUhEUgAAASsAAACoCAMAAACPKThEAAABHVBMVEX///8fGhcAAAD//v////0eGRb8//8fGRn///whHBn0yav//vzfZgDmdBQgGhf///rldRTpcxIhGRfpcw3efjf/8eXncRepqKf///YJAADlagDd3d3kdRPpoG//+fH39/cVEAzoaQDdaAAPCQQ8OznYYADpbwBXVlTx8O65trTk5OTBwL/T09PkoXn/7Nj/9uX73sfabRviYADacio0MC7nnGWBfXpsbGthYF7bg0OOjYvIyMh4eHbxv5rorYD00bD53bbfj1P+58fuwJr0pmXVcyLsr4ztwKHto3X1z7XdlmfVbx3xvpDyn1nbjVjrkEzgh0DbeTv22Meinp09OkEoJibxr3xJSETshznfhE3nsof/89vSdS7ef0bnwZ8Tj+GzAAAXw0lEQVR4nO1cC3vayJIVrVYjIYGQZWQQMkjiaUx4+f1eJzcPJ7O+SbyObzKZ/f8/Y6uqhQ12nPXdD8fZsc6MEwcEqI/qcaqqhaKkSJEiRYoUKVKkSJEiRYoUKVKkSJEiRYoUKVKkSJHiN4aqcPyLJz8p7odQVWEPj14cn9QUXeFcFU99Rr8vbFsV/7Fh+VHrdCBsW5j6U5/R7wsu+Mtxu5j32vFeCf5hpo54P9ThaRQAV55rvQOzUlIfvBemctIK8o7rOp7TOkEzSw3rPvDyqhU5QT7Ie/lobygUe5YriPX4V2prBL225zh5+D/vBM7kjSLmuBICJYUJ1qak9qbw0djNF71isejmnfx4JOZsSCUIYesipUoRJ5ZTzOcDx/Py+Xx0WrvFFdiUgloiNSvAKws90PUd4MrJW0dznJBRgQgTQhdp0OKrVuA6jvePGCzL8dqvB7PPCoXbw9HR1tbqq/pTneFvApXz8rJfdD339eDUyuc9J++/L0M013XSpMDT260NaxLF1uRjCbPiM/VEXLbJh4EHkcpZLo9aThBARrROOBeA8nCUW/0+tiLfcZzAcydvRJmr5lOf9dNAJRkwsjxUVi8U/mICTEF4fz1UyuVBbms5jq2ImMp7kCj985r+bDsRKoZs5chCaTV5q4gheKPnFIvWl1dbH1uTqA1PoM3lXUyUXvSuLJ5vE4IjV8e+h453BsSdWc4YLKsI5gQPAklAEViVl3eDoue2zoRq6upTn/QTgZtCKZ+3PSfwg4FqCnvL8oquk28Xi2BOATqkBy5YDAJQXtb7mnie0UpF6QSSSQyWXUx+/6pxYYvhB/C78djz2qjhwagiCwIV2pfjbJSEqj7D1ims2rQVgfFnEIMHev6pDWWMov8RY7sBtYPj+BN/vPzlPy2I/GBqH0bPjiUJG4hCVQB/noEEhdB+DI9xRdTOUb4XnXZkWZ9W/3hZHm1EqObd8QlZ1TOEwGXroMlLJ/8EcgJ3AqFdx877aNxu+1a8vJob1UC0jz5EgVd0nDgnnmvtzHUI0rXBq9WNOIDIFLjxZ8WEQG+K8rfW8tarUY2rwlbUwSffCSLPsY6A3vIzJAtsSvDy6Oh0HPttF/IdpMHlIYR64MoW9dGwBs6IhaAofY0iLBLjY4hmqv6MuOI6RHQdpXrp7Hg5nkQuSigQDMUgOi2b6JaU6ARUOBDQVDE8nVC3dPKlDILdfkbhSnBdBxaweNmwrLZDmgDYAoHQnhzP2YzJORxa27LQqJz4dPhU5/xUMFWQ6eWTrbHlu67rICDhOU4Uj/eO5/swOraMFSgPIUN61t6fz66wAakpSu9bPqjNIpZ3KKMcvzXeevWyNj97AKZsqBNbbagO89GnP8WzU+soyz9aRBS5luv61vLqWQmlw3yD2MY68VUL+ISC+ftIeX5qAZTnt4mHTJFBxR8+fhuVhKKSrpobNiNVJy0fD3TGZ0J/fhMv27ZPI6yIobxzgn+8HUAFCJpUFdRLn5tzqeJk7IPpeW6cg6eeUQJMwHltLyKjyufd4PSsBBxx24Qf7CTPccVLn3xg1M1bf0DgeoZTeyDlywRzH4UrP/7+bjS0MZBD0czndWZZX52g9Tn+sW5zodtPdc5PBahhXsZRPig6Mr5Debz3ZmDjVEuZL4uxUzNuOxDbovEI4/6zy4OqLfirOPK9Io64wGyKbtuKt3J/ljFczcersoA04DhFzz8ti/IzHAxCerNzr+N2McDCJgicItiYb41zpqnM2RWHsnD43cFBdBCfwcsWGt0hk/zoQYWkCf83PgoO7/ZX9rf3V6r1BfcgcVOCygfHY8ulmYMTOF7gWME3EA7mNF5xOGcdLFBX3rYcmhZ+LQvVXtiJQOIV4vP7d6s3eHd8dDawcReAzVVuPmwAiYHDXNsNmcTmfvcRNKCwB0d7cdQGmkA9Ra33A53Xq1MvgzAOlKLkEsM9H5t8+cmJslCuOBe5lj8Dy7fi8WmuBKWqbYIwflAiAes7uGIVzchkjIyWCZmxvqhTnPkQoKV0sgVxyymCbs+VBe/tHt48j/4HzqAL+8QKitiHWK7pi9tBClzpes7yqBq9QdBu/ZXDuAj65GEfVt9nDQOZMrQMkAVsrSzsJKfgOs65yqMvry1/fPwnV+oXDfiYxHBMVYWrW0bCFFCuuC2rODlaZGxXBddzcX4OpGOiyQtTCDSsB7yJ0t1lmlFYQhQyCENbPFlQ1IAAhbMqHW29BHM/+C+msWv7xS6yiRNWVPSjVhukWNDeGCywIAS75jnLmQHR5UNybr2rCVV/QHBX1XqHgT1JrpaIq8KSxg4WPGQCRQrRB4c4yFvvkDUKWqU/FViQ8cpvv50Nyxji+SptNnImXxanRTlmPOAKty95OKotekHedVH0OW3rCK7VtKWo4/xkunbQwxxHJ1LacH7IwPmMQqGghYWMhr64tGSERm/+szh/0J6xey+OilYOhY0OAlRZu2QafMZl9/pFa2vKUcv6hB33sjLYaMNaHHc8UOBqL2SzGmgCFbhycVscFA9RBGlGbpLDIdvGwIQ8YhI4x16sfJXJqWJVVV2myXWGAR1DerhpsBCj1tJSyHbmk+FDuXoQevgxGS1sSnWCuYVdKGcWjgbjva2TwRerjWuyVsviEbhygi3QDqd7H2LZonWc+A21/BHY/jftm5fh2BdSKO1WqV81NM3Q4CKvdJX6+hUaWaESrj3mjtYDZmBgbHSmN+McMLYjRjFO590oao3/5XluPvDaMW4iFYuYTcBqrrnyPw65rdZqg+MPvoxcLog5wSUgJfJpoIfoCWGfdq7imR4gOdq1z9k7LKOxTu9GJf4bp/NQ41sDUwb7ZTuJ6u2HYXazPlz2PS8Abd9uoxqlDUfvIS8u5KrNcuUu4+Y3DJwnYxnj/WAwIxnMqcLnoPhoXXbZxhC2z/C0DfABeVz9irF99d7A/pNk8fAVrWAyyWTwM3EJVSPMZJd65XN5lR3a8YHT+qK/MRQ//cwHY4arInKFCRcqzm8WNSCdePT5/ZZEDnKisJMXfd7aQom/df4Z/91pLKEEZWu0WG7y/ubBnU/qVte2tw+399d69+/drPfW97cPD7dXqt17DpBQkusDXK3TZ/Y2G4VCFhLvl8gFloI8cOWC8MH/4Hor5oK5yrufSpRqwL1G4Ou4H87KlVq+G/mxH+2VlWutVX43iX0/ciPIMqpSb4akqSodBVMAHqDOXkj034PtS6x9KhX4o3lxlwl8WXW/eX3M5X71zjHdlZ2rJmBzB1y/0yDRy/qQoZVes2IUNDTsXMuC80KbKuKKwAfbr4fgD4vhSp2zK0iwoE6V4TJm3GJ+cqSfYu+6WHTG6I7JR9a+w0XDOclpGR4yr0JNXuSLH3+Gsg4khNkM6QrIXaxxcburxJV+B45BvYHHAAnssKtc96ZULAwajDVCAMao+iamQXivHlSJ4PNZAHI1fPlqa7k1aWOowiobasIXuL99EV2sH3EF+qW218atS3nrSDmxSEN41tsbWxnFjpt3is4kRxsxDinOFu6T6tUOa8BSllBXZCBhGprGmvPSS+keMka1ER1RoLA9V1JWN0nCwU+G7cPxkHnhoLAJhHanVO1Txi4PTo6/ji2fRq2u/9eAegCPwxVchIQr3DchhhttDy3LP4X8l1yeYz8PYaHYBlvDR1ZgGfgfcLB29yPWQqbhWtCukAkqriuXcz7Wb2L40WThLf/GknLt+vJUjQamWlS5GbwiVZlOGrtgYrtEVRYo1CHplDmk7tro1dbGBNTi+PxPoZrikbgSOBsZbLi0XcDKKcq7GKuFwA1KU91e2/OLDoRQfwtv2VN41wixwYBylN1pL1wwLUNrySILcrVwZGOzq1w72HqlQQ+TDDCQFLKwEKMRob7ZkM9rmlaAEE6SAQ5k24pyQxV2kEjGoEowSyd/fDkalYWNG0MehSuQbSZWiHnaEdcaCXU0hhgJDjnJTXM6bqfzcDNPDstUeI8LSOBE1l3L2odKZIkW06DOVphU1hl2lbwbh4VrWHHDW8j+V0WGP4hGRvf6XdDLiaxs2MUHkFNwO2WHLSVUyS6aSjvZVPoLt7qbeA/AQpoNCVcOadHlEteppzE89z3axot5rvbVp4AVvVBoJ4oqjiyQeQ4U8SUyDZPXOxW0BFxvOEuWiu6JFTWspXG1v76+vn/FGuitwOz1gX0GxgKmZlRYc3v94GBlx2DSyDSwGyS0y9BzC4UQkmSFGXWubDMKXmxtm2VJZ+2j3pumAhNqbKw0bBvZA6taSBNrhisv+lRS8S4fUVu1HKqk259q4HbfLDQxB6jEBg7or9M2VYzt1bJKe8ZVpReGhjQF48YNoWatAg3YpQnZdlXGOn5wxTSKSGHTpATX3STJASa5eyClF+9uMwxs2Nghw1qXIj28XOsjYOk7FXJmbRefASPd/gX7Zuft6k/QmrWXub8ix/MdEA3WC8jIymDsFwMUprjX0DTFYEyZ0YV/XyvtdZb4jQGWNSVLrTcbGa2wlK1c9m80eR2bEsgqk4L1kF6KBjmz3BViRzPItUh4wlUIk+QJhnwVSq4oHeJRv2DAnGhR4srxvp5//boXWK6L+3HArCDPYaQ8j/LYkfWPFQiaujiZAFee0/6O4U2eookxR0YsNJApWSsyAlcgs89UeWZHRnIMzOiBFNDDsD93YqhD4M0aV/iyQ7Kiyi49g3eXdC8lVxT5NLb/SzZ4zHLlRQQckVAwd60XAszOVl5ZIICDfHuvhvHSXvVplOKvlpWZQeYK06RpQYRO1g0rWlrSMuFmb95DqtKSGh10uU6lgCuu3KqKeqEm5RjYktoJMTlKG6Ov+qhWtIQrsLdG59dsXJ/jCpRBENBNiyCewMf2SuCBUDEPPvhePvDceIQ7eEobLnEVn+Fg48b0LxI3hD8bzTqe/QrLYpf0ro7YBX7AlLJdMivQZRibbznRTkUW5H2KaMgMttYxgGMhwApTrjLGD4TKo2DOB3Hm5uC9PlCfBy7uXqJWjKmsgrGBF8ZvgCr9zApQULgQ99W5VgdYlsyGUlojJZC7MqAX52ngiXjVWA8ZNjAUXd4pEdcoRlFQq6KYhdi1ft0uXGHS/bLw/loBm0G/YBR/HdslWcW2Q98MAWZjfXw57VYpZ3FAxfVfNgjjY9yG4uTjF3fi6do0wBcoDHdJJ91WXKqqIw+kCHrgXo0k5d9Gn2oe4qqfqE3p2cjVNivIaJ+V5VBH/wX7Fma5Coo4/S5C1G771odvpWRcJHRe+oj9WMcHuaXU/hk5OClHh5x/L1RTCVlURsNqqWabNxmoN8GFiKtGT+mSOvqBm4IxFUiFHWAvkbhKbA8/dbdCUiG8kFU7JsJfyxVkOt+PLMuKP3w9GnAluVRCt8VxRA2O+C0HxeBCPHOi5dqdNyOyZJ2Cvd0Lyvthc9760K7IheCZOvBJrZVG786bUQKAnFrFN0KqsLVOpww/zZB8sNG7kBX3LwlZs1w5463Vd6urx0cng5qi6teFARQ9oxa2zTz/vCa+YYFDN8HQy+dvXJ+24IxwEx2FuLqa/0TkaruCHlTZQZMp4FLDux2tPqOSBqucHclV8kbY4L9E6Qsf0lU7kD/AD0Otqy6k+fkTTLnC4N5eLulQHgtaD067k44xbhD42s47gReNS/ZX6qQF8Ugot7lSp6vAMUVdZjJQDLftitcb1ElAP12XXP3Arg4YFYhXJvZdKVztJKc8FR0GGmZVcgUh69HF6Kxub1PtTI9S9ZEYFg5rxNsJsWmdlXBPhZNv/yW/NoJGrf2ZrvC+jC1hkyudMFPIZrKV3u129wpboiDTo3GMJuOVnHQkJ0UFdaFgZKjpIj1u2knkU2s0SJyusWyBSqu76WHBmHKVT2YTP1J18JAYtCBJ5h3raNRy8Z69yRvJJKyqv8tmelFrzECuwL9QFWELAGTRrHsIpWdoaAkVCGloIZjJwGZmjtGxWb3PQMdS06V3J/6vEdlZKfw7UJ6D2Hr8kHXDVfFerrCxj/fmQU3of/kD5/l5B5s19PrqDqvIc5bYTvL7hVKFWg25ajS7c3aF8/yCXDsHn03az/0Zh+Zc1CHVLYFdYV/vQNaG7KYIukDJAFyRGulmKXjdjKAfCw+yK5zansXYd/dPT30UV+2vNepcAVPspgpWyE7IrhpVCjjAlWHIQDOlq9uhpWfIrFCeG1Rwb3bxTpok8de3+0qzAZqfZPsaiXQtm8Q0jsFeciU/dl2qiwzbfVzdMMNV8T6uVNxZVPreBtXg/GvDC9AX32CXzzxkFWyAa6FRlVbR38QYBS64K5UpcJXJGmwXa2e5kPVNJvdohVVFjvelQmo0q1iCE6PVTlZRL5eWlsCuehjeqCJqJlFRoGSQXCWWJvv9P1S0i+cq/ilXim6riv3Cx2lEse2BWbmtAY3odypYG0O50tAuet1uf7sSajJG9aW8Iq60S3ZJ2yLrvfUOCymYG+BcdL/DdCBjNCr7fXSi7gHYalPphrjjhvpX+2hXRmN3apkqN0iuZ6d7S6BGlw1mdncsuXCuZB6kufM9B3Gc3eTxW0iwA+F/NWnzB7gZVMfZJUxD7BJ+IAprhSWDHcIbkbaWQwl8utnpNBlrFDC7UfP3pvOFRSROgdhmZ/cqZEwDJQupDmXTZp2bnQrEN3zP6el0Q42ebE4D1DoqUmwpInu09efJuCLU9tp5qgrlKAwHq0LpVOTYAenQpjOIQuWqDu9L7bjpUAKUUqMBBQlFdS0zkw3UHTZtGBhhCMdoVHqv0aPYbgHLKxSmXT8CFE/IVWN3ugjsxxuksuihJ+fK/mZBxUhUuWPcLYdnlFS12SU5m5D/qGz24G3UzWuuMnLORT9ymDUzdFW7VwlZBg0PaeSwkhQAaKDdBliRVoCkN6UAdAlydW1pOPqmEtxIGH1irjh+GYJDXEE2rIlkC9tFQhbNqiQz7IpcQ1bF2bCCXGGLKvnJZpg2r4RARGA3lVqocjwIceeQBoZAKq+iFWmZOckgRdkM433ZPkxC1pNzVT71SVo4TvxWsXVV7gPZZyENfclgskYWxFY9OXtZH++wRoZGrUQVRqXDW21SRd1n05qbCAtZFfvMENFRQa0z/K3Aetctou1k4LU+o9vkEKxghNm75dKCcMNV8edcCZNGXUhVe1xSdZX2zMCLVzRga4lOXoO43OnTHh9lGnB2zfUrxjAKoU6A3w5RG9yqIhXQ/ozCGRxTYWyn3pXTRDSmfflb41ppmp1kF31v5m1wH5NE57G+Q43bsOhcy7cAk43B/ebLVTF47WKXz4vOTdo7lKy0ezE9zUoTd7ck6pu8k7KX2d/v0C4Zo7mzfp+2rl50NpGfbHN3BSyjviIB6+5f0G9r12W6uSafu5gjpZe8YuXi7g6bxYAM5POLY8SXNxCG7uMKpGf5n1YAqdCLc7efrB6sr62tH8ydJBU71/KwW+33+/+Ld8hj7reKnzYSfsE9lbg7VtimyXVdt8sqv3eHMwTzwQf6Min/dem+g2ZBcsKgnTP/99JDvef3nx75WLSp+DUP1ze0qPr9m7rKIhfR3XvR1t0nsekwr2rqRkhcYfb629yejTtEp1DuH9+qkAcj2g9y1wV/hC6JiQxDl/qbcIXTNjPZUayr/Cf2y89iajS7r0s/qq9vOnUSPeJKC/9GXNHWl2nb6PaiUH2bYG66qdj24JNbxC6ftao/JP4cMAOK38bVc7mFFktmk5fxGzvtz3sRNgQ9Jz4RD7nF5QK0YaYw7ZE/A+BYwv7vL6/OjrbGkethiYP1zUN8apvRNthHb4L/PgD1xVcnoFN92WRw2q3RrRvX78HhJm2v/jU7DX4DcFLnq0FAWsEB1e60vuDOvv/1lWrybQDP51s3uI7i9F3kyak0UBafD/GbNp76xH5HgKLQxTvfoZu+QLRbe0P72X2PxgOB82f+Tt4O5OWjyerQXtxt6X8zqHg36otWLHF+VrMXeFv63w4gGgYjic81zv8+Gnzh4NxUpZrCe5vx6xUV5Vllt38H3FbN5DviOVQ7itxEk3L1I+COFT67fyVFihQpUqRIkSJFihQpUqRIkSJFihQpUqRIkSJFihQpUqRIkSJFihQpUqRIkSJFihQpUqRIkSJFihQpUqRIkeL/Ff4H/BZHPodcHtYAAAAASUVORK5CYII=;direction=east;" vertex="1" parent="1">
          <mxGeometry x="400.06" y="158.5" width="71.19" height="40" as="geometry" />
        </mxCell>
      </root>
    </mxGraphModel>
  </diagram>
</mxfile>
